<svg width="382" height="180" viewBox="0 0 382 180" fill="none" xmlns="http://www.w3.org/2000/svg">
<rect width="382" height="180" rx="50" fill="#C4D0FD"/>
<g clip-path="url(#clip0)">
<g filter="url(#filter0_di)">
<path fill-rule="evenodd" clip-rule="evenodd" d="M83.495 143.303C81.3747 143.303 78.0505 139.788 75.1325 132.018C72.2641 133.481 69.7722 134.631 67.3496 135.677C71.1494 145.554 76.5544 152 83.495 152C90.6289 152 96.1379 145.202 99.9525 134.884C97.5498 133.887 95.0133 132.752 92.1201 131.319C89.1526 139.584 85.6897 143.303 83.495 143.303ZM60.1662 132.315C44.8135 137.963 29.005 138.107 29.005 124.164C29.005 119.508 31.16 112.973 37.9025 103.924C40.7808 100.061 44.1149 96.2634 47.4986 92.7777C55.0833 85.0675 63.6291 77.6548 74.7709 69.9743C69.4056 67.0191 63.5548 64.1879 57.8477 62.0905C52.0019 59.9337 46.8546 58.7387 42.9111 58.7387C40.3944 58.7387 38.5218 59.2693 37.9124 60.1667C37.2535 61.1187 37.2288 64.054 40.117 69.3049L41.1573 69.2405C46.3443 69.2405 50.5602 73.5344 50.5602 78.8249C50.5602 84.1155 46.3443 88.3995 41.1573 88.3995C35.9655 88.3995 31.7594 84.1155 31.7594 78.8249C31.7594 77.1093 32.2003 75.5028 32.9732 74.1095C30.0503 68.9529 29 64.887 29 61.6988C29 54.187 34.717 50.0269 42.9111 50.0269C55.3657 50.0269 72.1403 58.2677 82.9501 64.6342C93.9185 57.876 111.273 48.9708 124.089 48.9708C133.467 48.9708 137.995 54.1969 137.995 60.846C137.995 65.5019 135.835 72.032 129.097 81.076C113.819 101.589 83.4405 123.747 60.1662 132.315ZM134.066 110.97C134.77 109.631 135.156 108.114 135.156 106.497C135.156 101.202 130.95 96.9129 125.758 96.9129C120.567 96.9129 116.361 101.202 116.361 106.497C116.361 111.783 120.567 116.067 125.758 116.067L127.037 115.983C129.771 121.06 129.732 123.901 129.093 124.843C128.478 125.741 126.611 126.266 124.089 126.266C116.152 126.266 105.1 121.586 97.9808 118.05C95.6029 119.746 92.6552 121.759 89.7719 123.599C99.3085 128.735 113.339 134.978 124.089 134.978C132.214 134.978 138 130.863 138 123.306C138 120.143 136.955 116.092 134.066 110.97ZM70.4856 111.56H70.4806L70.4162 111.51C64.7487 107.494 59.1605 103.081 53.9835 98.4649C40.0278 112.73 36.0943 123.073 37.9421 125.855C38.5664 126.792 40.3796 127.337 42.9111 127.337C54.5532 127.337 73.032 117.331 83.9657 110.157C97.3863 101.356 112.699 88.697 122.291 75.8152C129.751 65.8093 129.979 60.5386 129.058 59.1503C128.434 58.2082 126.625 57.6727 124.089 57.6727C114.419 57.6727 99.6949 64.9069 91.2135 69.8057C97.4705 73.9509 103.316 78.3291 108.652 82.7767C106.631 84.8344 104.52 86.8376 102.36 88.7812C96.4351 83.9122 89.8561 79.1323 83.0343 74.8483C75.2019 79.9852 67.315 86.0244 60.2306 92.4603C65.5563 97.1757 71.9025 102.124 78.6648 106.706C76.0788 108.347 73.468 109.914 70.4856 111.56ZM83.495 82.5833C88.9644 82.5833 93.4032 87.026 93.4032 92.5C93.4032 97.974 88.9644 102.417 83.495 102.417C78.0257 102.417 73.5869 97.974 73.5869 92.5C73.5869 87.026 78.0257 82.5833 83.495 82.5833ZM74.8799 53.6862C72.0065 52.273 69.4551 51.1178 67.0475 50.1261C70.8621 39.8028 76.3711 33 83.495 33C90.4456 33 95.8555 39.4558 99.6503 49.3228C97.2228 50.374 94.7161 51.5392 91.8625 52.987C88.9545 45.2173 85.6303 41.7068 83.495 41.7068C81.3103 41.7068 77.8523 45.4256 74.8799 53.6862Z" fill="#9425C9"/>
<path d="M107.172 82.8492C102.093 78.664 96.5608 74.5477 90.6612 70.6394L89.315 69.7475L90.7134 68.9398C94.9813 66.4746 100.825 63.4187 106.828 60.9759C112.805 58.5442 119.052 56.6727 124.089 56.6727C125.419 56.6727 126.607 56.8121 127.575 57.0996C128.517 57.3794 129.391 57.842 129.891 58.5979M107.172 82.8492L129.058 59.1503M107.172 82.8492C105.603 84.4193 103.982 85.9579 102.327 87.4625M129.891 58.5979L129.058 59.1503M129.891 58.5979C129.891 58.5977 129.891 58.5975 129.891 58.5973L129.058 59.1503M129.891 58.5979C130.277 59.1788 130.448 59.9967 130.438 60.9427C130.429 61.912 130.23 63.1147 129.77 64.555C128.852 67.4352 126.865 71.3534 123.092 76.413M129.058 59.1503C129.979 60.5386 129.751 65.8093 122.291 75.8152M123.092 76.413C123.092 76.4128 123.093 76.4126 123.093 76.4124L122.291 75.8152M123.092 76.413L122.291 75.8152M123.092 76.413C113.405 89.4236 97.9874 102.157 84.5141 110.993L122.291 75.8152M58.1926 61.1519C52.3023 58.9787 47.0266 57.7387 42.9111 57.7387C41.5906 57.7387 40.3957 57.877 39.4224 58.1545C38.4881 58.4208 37.5909 58.8628 37.0875 59.6015C36.5302 60.4103 36.414 61.7148 36.7004 63.3014C36.9976 64.9476 37.7618 67.098 39.2408 69.7869L39.5462 70.3422L40.1788 70.303L41.1874 70.2405C45.7907 70.2571 49.5602 74.0791 49.5602 78.8249C49.5602 83.5797 45.7756 87.3995 41.1573 87.3995C36.5351 87.3995 32.7594 83.5807 32.7594 78.8249C32.7594 77.2829 33.1553 75.8428 33.8477 74.5946L34.1197 74.1043L33.8431 73.6164C30.9777 68.5611 30 64.6655 30 61.6988C30 58.2218 31.3101 55.5992 33.5106 53.8243C35.7376 52.028 38.971 51.0269 42.9111 51.0269C48.948 51.0269 56.1145 53.0318 63.1743 55.8709C70.2157 58.7026 77.0656 62.329 82.4426 65.4958L82.9617 65.8016L83.4747 65.4855C88.93 62.1242 95.9636 58.2354 103.214 55.1901C110.484 52.1365 117.88 49.9708 124.089 49.9708C128.595 49.9708 131.804 51.2238 133.879 53.1481C135.948 55.0676 136.995 57.7541 136.995 60.846C136.995 65.1969 134.971 71.5178 128.296 80.4786L128.296 80.4787C113.137 100.83 82.9199 122.873 59.8207 131.377C52.208 134.177 44.6138 135.558 38.9964 134.6C36.2042 134.124 33.977 133.084 32.4486 131.434C30.9318 129.797 30.005 127.452 30.005 124.164C30.005 119.813 32.0243 113.487 38.7044 104.521C41.5503 100.703 44.8535 96.9384 48.2138 93.4766C55.7556 85.8103 64.2524 78.4397 75.3384 70.7976L76.6709 69.8791L75.2533 69.0984C69.859 66.1272 63.9609 63.2718 58.1926 61.1519ZM133.181 110.505L132.928 110.987L133.195 111.461C136.027 116.482 137 120.364 137 123.306C137 126.803 135.675 129.425 133.466 131.195C131.23 132.988 127.995 133.978 124.089 133.978C118.884 133.978 112.816 132.462 106.818 130.275C101.45 128.319 96.1932 125.847 91.7456 123.515C93.9758 122.06 96.1809 120.552 98.0734 119.211C101.571 120.929 105.934 122.879 110.4 124.429C115.081 126.053 119.954 127.266 124.089 127.266C125.411 127.266 126.606 127.129 127.579 126.853C128.515 126.588 129.412 126.146 129.918 125.408L129.92 125.405C130.459 124.609 130.582 123.341 130.315 121.794C130.04 120.195 129.319 118.111 127.917 115.508L127.612 114.943L126.971 114.985L125.726 115.067C121.118 115.049 117.361 111.237 117.361 106.497C117.361 101.736 121.137 97.9129 125.758 97.9129C130.38 97.9129 134.156 101.736 134.156 106.497C134.156 107.952 133.809 109.31 133.181 110.505Z" stroke="#004A39" stroke-width="2"/>
</g>
</g>
<g filter="url(#filter1_d)">
<path d="M169.2 82.8C169.267 81.8 169.4 81.1667 169.6 80.9C169.867 80.6333 170.133 80.5 170.4 80.5C171.133 80.5 171.433 80.9667 171.3 81.9C170.833 82.5667 170.3 82.9 169.7 82.9C169.567 82.9 169.467 82.9 169.4 82.9C169.4 82.8333 169.333 82.8 169.2 82.8ZM174.5 83.1L174.3 82.8C174.567 82.4667 174.767 82.2333 174.9 82.1C175.1 81.9667 175.233 81.8333 175.3 81.7C176.3 81.2333 177.1 81 177.7 81C178.367 81 178.9 81.2 179.3 81.6C179.633 81.9333 179.867 82.3333 180 82.8C180.2 83.2667 180.133 83.7333 179.8 84.2C179.533 84.2667 179.233 84.4667 178.9 84.8C178.633 84.9333 178.267 85 177.8 85C177.4 84.9333 177 84.8667 176.6 84.8C176.267 84.7333 175.9 84.5667 175.5 84.3C174.967 84.1667 174.667 84 174.6 83.8C174.533 83.6 174.5 83.3667 174.5 83.1ZM194.5 79.6C195.233 79.9333 195.8 80.5 196.2 81.3C196.6 82.0333 196.7 82.8667 196.5 83.8C196.167 84.2667 195.867 84.5333 195.6 84.6H195.3C194.967 84.6 194.733 84.6333 194.6 84.7L194.2 84.4C194.133 84.3333 193.967 84.3 193.7 84.3H193.5C192.833 83.5667 192.5 82.8 192.5 82C192.5 81.4 192.6 80.8 192.8 80.2L193.7 79.9C193.833 79.8333 193.967 79.8 194.1 79.8C194.233 79.7333 194.367 79.6667 194.5 79.6ZM157.9 42.2C158.1 42.3333 158.2 42.6333 158.2 43.1C158.2 43.5667 158.167 43.9333 158.1 44.2C157.7 44.6 157.533 44.9 157.6 45.1C157.2 45.1 156.867 45.1 156.6 45.1C156.333 45.0333 156.1 45 155.9 45C155.367 44.8 155.067 44.4667 155 44C154.933 43.4667 154.933 42.9667 155 42.5C155.4 42.1 155.733 41.8333 156 41.7C156.933 41.5 157.567 41.6667 157.9 42.2ZM187.8 73.6C188.133 74.3333 188.333 74.8667 188.4 75.2C188.533 75.6 188.567 76 188.5 76.4C188.633 76.6667 188.767 77.0667 188.9 77.6C189.1 78.6667 189.333 79.5 189.6 80.1C189.733 80.3 189.833 80.5 189.9 80.7C189.967 80.8333 190 81 190 81.2C190.133 81.7333 190.267 82.1 190.4 82.3C190.467 82.4333 190.5 82.6 190.5 82.8C190.5 82.9333 190.533 83.1 190.6 83.3C190.867 83.6333 191.033 83.9333 191.1 84.2C191.233 84.4667 191.367 84.6667 191.5 84.8C191.633 85.2 191.767 85.5 191.9 85.7C192.033 85.9667 192.2 86.2333 192.4 86.5C192.933 86.9 193.233 87.3333 193.3 87.8C193.3 88.0667 193.4 88.3 193.6 88.5C193.667 88.8333 193.733 89.1 193.8 89.3C193.867 89.5 193.967 89.7667 194.1 90.1C194.033 90.3 194.067 90.6333 194.2 91.1C193.933 91.8333 193.5 92.6333 192.9 93.5C192.3 94.3667 191.533 94.8 190.6 94.8C190.333 94.8 190.133 94.9333 190 95.2H189.7C189.433 95.2 189.2 95.2333 189 95.3C188.933 95.3667 188.8 95.4 188.6 95.4C188.267 95.4 187.933 95.3333 187.6 95.2C187.333 95.0667 187.167 94.9333 187.1 94.8C186.833 94.6 186.633 94.4667 186.5 94.4C186.433 94.4 186.367 94.4 186.3 94.4C185.7 93.9333 185.233 93.4667 184.9 93C184.633 92.4667 184.433 91.9333 184.3 91.4C183.967 91.0667 183.733 90.7 183.6 90.3C183.467 89.9 183.333 89.5667 183.2 89.3C183.067 88.3667 183.067 87.4 183.2 86.4C183.2 85.4667 183.1 84.6667 182.9 84C182.7 83.3333 182.433 82.6 182.1 81.8C182.033 81 181.833 80.4 181.5 80C181.367 79.8 181.233 79.6 181.1 79.4C181.033 79.1333 180.967 78.9 180.9 78.7C180.567 78.6333 180.267 78.6 180 78.6C179.8 78.5333 179.533 78.5 179.2 78.5C178.867 78.5 178.533 78.5 178.2 78.5C177.933 78.5 177.633 78.4667 177.3 78.4C176.967 78.3333 176.7 78.3 176.5 78.3C176.3 78.3 176.067 78.3 175.8 78.3H175.2C174.6 78.3 174.033 78.2333 173.5 78.1C172.433 77.9 171.4 77.8 170.4 77.8H169C168.733 77.7333 168.467 77.7 168.2 77.7C168.067 77.7 167.967 77.7 167.9 77.7H165.6C165 77.7 164.433 77.8 163.9 78C163.567 78.2667 163.3 78.4333 163.1 78.5C162.967 78.5667 162.833 78.6333 162.7 78.7C162.433 78.7667 162.133 78.8667 161.8 79C161.533 79.0667 161.3 79.2667 161.1 79.6C160.7 80.2667 160.567 80.8333 160.7 81.3C160.833 81.5 160.8 81.7667 160.6 82.1C160.733 82.8333 160.733 83.6333 160.6 84.5C160.533 85.3 160.433 86.0667 160.3 86.8C160.5 87.4667 160.567 88.1 160.5 88.7C160.3 89.3667 160.2 90.0333 160.2 90.7C159.867 91.5 159.367 92.1333 158.7 92.6C158.1 93.0667 157.433 93.5333 156.7 94C155.633 94.1333 154.967 94.4667 154.7 95C154.233 95 153.9 94.9333 153.7 94.8C153.567 94.6667 153.333 94.6 153 94.6H152.6C152.333 94.8 152.033 94.9 151.7 94.9C151.433 94.9 151.133 94.8 150.8 94.6C150.467 94.4667 150.2 94.3333 150 94.2C149.733 94.0667 149.433 93.9333 149.1 93.8C149.1 93.6667 149.033 93.3333 148.9 92.8C148.833 92.6667 148.8 92.5333 148.8 92.4C148.733 92.2667 148.633 92.1333 148.5 92C148.167 91.3333 148.133 90.8 148.4 90.4C148.6 89.9333 148.633 89.4 148.5 88.8C148.5 88 148.633 87.3667 148.9 86.9C149.1 86.3667 149.367 85.8333 149.7 85.3C150.1 84.1667 150.367 83.4333 150.5 83.1C150.7 82.7667 150.867 82.5333 151 82.4C151.267 82.1333 151.367 81.8 151.3 81.4C151.833 80.4667 152.233 79.8667 152.5 79.6C152.767 79.2 152.967 78.8333 153.1 78.5C152.967 78.0333 152.833 77.7 152.7 77.5C152.633 77.2333 152.5 76.8667 152.3 76.4C152.1 76.1333 152 75.7 152 75.1C152 74.9667 152 74.7 152 74.3C152.067 73.8333 152.167 73.5333 152.3 73.4C152.633 72.8 153 72.3667 153.4 72.1C153.6 72.0333 153.833 71.8667 154.1 71.6C154.233 71.0667 154.367 70.5333 154.5 70C154.7 69.4667 154.8 68.9333 154.8 68.4C154.867 68.0667 154.9 67.7667 154.9 67.5C154.967 67.2333 154.967 66.9333 154.9 66.6C154.833 66.1333 155.033 65.6667 155.5 65.2C155.833 64.6667 156.067 64.2333 156.2 63.9C156.133 63.5667 156.167 63.2 156.3 62.8C156.5 62.4 156.7 62.0333 156.9 61.7C157.033 61.1667 157.167 60.6333 157.3 60.1C157.433 59.5 157.6 58.9667 157.8 58.5C157.8 58.2333 157.9 57.9667 158.1 57.7C158.233 57.4333 158.233 57.2 158.1 57C158.233 56.6667 158.333 56.3333 158.4 56C158.533 55.6 158.633 55.2 158.7 54.8C158.767 54.4667 158.833 54.1333 158.9 53.8C158.967 53.4667 159.1 53.1333 159.3 52.8C159.367 52.6 159.4 52.3333 159.4 52C159.4 51.5333 159.433 51.2 159.5 51C159.633 50.7333 159.767 50.5 159.9 50.3C160.3 50.0333 160.5 49.6667 160.5 49.2L161.1 47.8V46.2C160.767 45.9333 160.667 45.4 160.8 44.6C160.933 44.4 160.933 44.0667 160.8 43.6C161.2 42.9333 161.5 42.2333 161.7 41.5C161.9 40.7 162.067 39.9 162.2 39.1C162.2 38.7667 162.133 38.4 162 38L161.7 37.2C161.367 37 161.167 36.7333 161.1 36.4C161.033 36.0667 160.933 35.7333 160.8 35.4C161 34.9333 161.133 34.5333 161.2 34.2C161.267 34 161.333 33.8667 161.4 33.8C161.533 33.6667 161.667 33.5333 161.8 33.4C161.867 33.0667 161.967 32.8333 162.1 32.7C162.233 32.5667 162.467 32.4 162.8 32.2C162.933 31.5333 163.233 31.1667 163.7 31.1C164.233 30.9667 164.867 30.8667 165.6 30.8C166 30.6667 166.2 30.5667 166.2 30.5C166.4 30.4333 166.567 30.3667 166.7 30.3C166.833 30.2333 166.967 30.2333 167.1 30.3C167.233 30.3667 167.5 30.4 167.9 30.4C168.433 30.1333 168.9 29.9333 169.3 29.8C169.7 29.6667 170.067 29.6 170.4 29.6C170.533 29.6 170.867 29.6667 171.4 29.8C172.133 30.0667 172.833 30.2333 173.5 30.3C173.767 30.4333 174.1 30.5667 174.5 30.7C175.233 31.3 175.8 32.0667 176.2 33C176.333 33.6667 176.367 34.3 176.3 34.9C176.233 35.4333 176.133 36 176 36.6C176 37.1333 176.033 37.6333 176.1 38.1C176.167 38.5 176.267 38.8667 176.4 39.2C176.467 39.5333 176.533 39.8 176.6 40C176.667 40.2 176.733 40.3667 176.8 40.5C176.867 41.0333 176.933 41.4 177 41.6C177.067 41.7333 177.167 41.9 177.3 42.1C177.367 42.2333 177.4 42.4667 177.4 42.8C177.4 43.3333 177.533 43.7333 177.8 44C177.867 44.1333 177.933 44.2667 178 44.4C178.067 44.5333 178.1 44.6667 178.1 44.8C178.167 45.8667 178.433 46.5667 178.9 46.9C179.033 47.4333 179.2 47.7667 179.4 47.9C179.667 48.6333 179.833 49.2667 179.9 49.8C179.967 50.4 180.133 51.0667 180.4 51.8L181.1 53C181.167 53.1333 181.233 53.3 181.3 53.5C181.367 53.6333 181.433 53.7667 181.5 53.9C181.633 54.0333 181.7 54.2 181.7 54.4C181.767 54.5333 181.833 54.6667 181.9 54.8C181.9 55.4 181.933 55.7333 182 55.8C182.067 56.0667 182.2 56.5667 182.4 57.3C182.6 58.0333 182.767 58.5 182.9 58.7C182.9 59.0333 182.967 59.2667 183.1 59.4C183.167 59.6 183.2 59.8667 183.2 60.2C183.467 60.6667 183.7 61.1 183.9 61.5C184.1 61.8333 184.3 62.1333 184.5 62.4C184.9 62.9333 185.2 63.5667 185.4 64.3C185.8 64.7 186.033 65.1667 186.1 65.7C186.433 66.5 186.6 66.8667 186.6 66.8C186.6 67.1333 186.633 67.4 186.7 67.6C186.767 67.7333 186.833 67.8667 186.9 68C187.033 68.4 187.1 68.7 187.1 68.9C187.233 69.5667 187.333 69.9667 187.4 70.1C187.6 70.8333 187.667 71.3 187.6 71.5C187.467 71.9 187.467 72.2667 187.6 72.6L187.8 73.6ZM169.2 49.3C168.867 49.6333 168.633 50 168.5 50.4C168.433 50.8 168.4 51.2333 168.4 51.7L167.8 53C167.733 53.2667 167.7 53.7667 167.7 54.5C167.567 55.1667 167.433 55.7 167.3 56.1C166.833 56.9667 166.6 57.9333 166.6 59C166.667 59.8667 166.567 60.4 166.3 60.6L165.8 62.1C165.733 62.4333 165.633 62.8333 165.5 63.3C165.433 63.7667 165.3 64.2667 165.1 64.8L164.5 66.1C164.3 66.5667 164.2 67 164.2 67.4C164.2 67.6667 164.2 67.9 164.2 68.1C164.267 68.3 164.333 68.5333 164.4 68.8C164.733 69.0667 164.933 69.3667 165 69.7C165.067 70.0333 165.433 70.2667 166.1 70.4C166.633 70.6 167 70.8333 167.2 71.1C167.333 71.3 167.533 71.4667 167.8 71.6C168.067 71.6667 168.267 71.7 168.4 71.7C168.933 71.7667 169.333 71.8667 169.6 72C169.733 72.0667 169.867 72.1333 170 72.2C170.133 72.2 170.3 72.2333 170.5 72.3H172.2C172.4 72.2333 172.7 72.2 173.1 72.2C173.433 72.2 173.7 72.2333 173.9 72.3C174.167 72.1667 174.5 72.1 174.9 72.1C175.233 72.1 175.6 72 176 71.8C176.8 71.8 177.3 71.5 177.5 70.9C177.633 70.5667 177.633 70.1333 177.5 69.6V68.3C177.367 67.9667 177.233 67.6333 177.1 67.3C176.967 66.9667 176.9 66.6333 176.9 66.3C176.833 65.7667 176.567 65.1667 176.1 64.5C175.967 63.9667 175.8 63.5333 175.6 63.2C175.467 62.8 175.333 62.5 175.2 62.3C174.867 61.9 174.667 61.4333 174.6 60.9C174.467 60.1 174.333 59.5667 174.2 59.3C174.133 59.0333 174.1 58.6333 174.1 58.1C174.1 57.9 174.033 57.6667 173.9 57.4C173.833 57.2667 173.767 57.1333 173.7 57C173.7 56.8667 173.667 56.7 173.6 56.5C173.333 56.3667 173.2 56.1667 173.2 55.9C173.067 55.5 173 55.2333 173 55.1C172.667 54.1 172.433 53.0333 172.3 51.9C172.233 51.0333 171.867 50.2333 171.2 49.5C170.667 49.5 170.3 49.4667 170.1 49.4C169.967 49.3333 169.667 49.3 169.2 49.3ZM184.3 49.5C183.567 48.8333 183.1 48.2333 182.9 47.7C182.767 47.1 182.767 46.5667 182.9 46.1C183.3 45.3667 183.767 44.8667 184.3 44.6C184.7 44.7333 184.967 44.8667 185.1 45C185.3 45.0667 185.467 45.1 185.6 45.1C185.8 45.5 186.033 45.9 186.3 46.3C186.567 46.7 186.633 47.1333 186.5 47.6C186.233 47.9333 185.933 48.2333 185.6 48.5C185.467 48.6333 185.367 48.7667 185.3 48.9C185.3 48.9667 185.267 49.0333 185.2 49.1C185 49.3 184.7 49.4333 184.3 49.5ZM186.1 51.3C186.433 51.6333 186.567 52.0667 186.5 52.6C186.433 53.0667 186.167 53.3333 185.7 53.4C185.233 53.4667 184.833 53.3 184.5 52.9C184.233 52.4333 184.267 51.9333 184.6 51.4C184.8 51.3333 185.067 51.3 185.4 51.3H186.1ZM216.466 42V41.8C217.533 41.9333 218.3 42.1 218.766 42.3L220.566 43.2C220.9 43.4 221.2 43.5667 221.466 43.7C221.733 43.8333 221.933 43.9667 222.066 44.1L222.966 44.7C223.1 45.0333 223.166 45.3 223.166 45.5C223.233 45.6333 223.3 45.7667 223.366 45.9C224.1 46.9667 224.666 48 225.066 49C225.466 49.9333 225.6 51.1 225.466 52.5V53.6C225.466 53.9333 225.4 54.3 225.266 54.7C225.133 54.8333 225.033 55 224.966 55.2C224.966 55.4 224.933 55.6 224.866 55.8C224.8 55.9333 224.766 56.0667 224.766 56.2C224.766 56.2667 224.733 56.3667 224.666 56.5C224.533 56.9667 224.5 57.3333 224.566 57.6C224.433 58.1333 224.333 58.5 224.266 58.7C224.2 58.8333 224.166 58.9333 224.166 59C223.9 59.6667 223.6 60.1667 223.266 60.5C223.133 61.0333 223.033 61.4 222.966 61.6C222.7 62 222.4 62.2 222.066 62.2C221.533 62.4667 221.133 62.7 220.866 62.9C220.666 63.1 220.5 63.2667 220.366 63.4C220.166 63.6667 219.966 63.8333 219.766 63.9C219.566 63.9 219.366 63.9 219.166 63.9C218.7 64.1 218.233 64.2 217.766 64.2C217.433 64.2 217.2 64.1667 217.066 64.1C216.6 63.7667 216.2 63.5667 215.866 63.5C214.666 63.3 213.9 62.6667 213.566 61.6L213.266 60.9C213.133 60.5667 213 60.2333 212.866 59.9C212.733 59.5667 212.666 59.2333 212.666 58.9C212.533 58.7 212.6 58.4 212.866 58C213.333 57.2667 213.7 56.7 213.966 56.3C214.233 55.8333 214.6 55.5333 215.066 55.4C215.333 55 215.6 54.8 215.866 54.8C216.133 54.6667 216.333 54.4667 216.466 54.2C216.466 53.4667 216.5 52.9667 216.566 52.7C216.7 52.4333 216.766 52.1667 216.766 51.9C216.766 51.6333 216.666 51.3667 216.466 51.1C216.266 50.9 216.2 50.6667 216.266 50.4C216 50.2 215.866 49.9333 215.866 49.6C215.866 49.1333 215.566 48.8333 214.966 48.7C214.366 48.5 213.866 48.4 213.466 48.4C213.266 48.4 213.133 48.4333 213.066 48.5C212.8 48.5667 212.4 48.6 211.866 48.6H211.266C211.066 48.6 210.933 48.6333 210.866 48.7C209.933 49.0333 209.166 49.3333 208.566 49.6C207.966 49.8 207.466 50.1667 207.066 50.7C206.533 50.9667 206.266 51.1333 206.266 51.2C205.933 51.6667 205.7 52.0333 205.566 52.3C205.5 52.5667 205.4 52.8667 205.266 53.2C205.2 53.4667 205.2 53.7 205.266 53.9L205.066 56.2C205 57.6 205.1 58.8333 205.366 59.9C205.566 61.1 206.233 61.9333 207.366 62.4C207.433 62.5333 207.633 62.7 207.966 62.9C208.1 62.9667 208.266 63.1667 208.466 63.5C208.8 63.6333 209.1 63.8 209.366 64C209.633 64.2 209.933 64.4 210.266 64.6C210.533 64.8667 210.8 65.0667 211.066 65.2C211.4 65.3333 211.766 65.4667 212.166 65.6C212.3 65.6667 212.433 65.7333 212.566 65.8C212.7 65.8667 212.833 65.9333 212.966 66C213.366 66.4 213.766 66.5667 214.166 66.5C214.7 66.6333 215.133 66.7333 215.466 66.8C215.8 66.8 216.133 66.8 216.466 66.8C217.133 66.8 217.7 66.9667 218.166 67.3C218.9 67.3 219.5 67.5333 219.966 68C220.5 68.6667 220.866 69 221.066 69C221.2 69.1333 221.3 69.2333 221.366 69.3C221.5 69.3667 221.633 69.4333 221.766 69.5C221.966 69.8333 222.133 70.1 222.266 70.3C222.466 70.4333 222.633 70.5667 222.766 70.7C222.966 70.9667 223.066 71.2667 223.066 71.6C223.2 72.6 223.366 73.2667 223.566 73.6C223.7 73.8667 223.766 74.1333 223.766 74.4C223.833 74.6 223.866 74.8667 223.866 75.2C224.133 76.1333 224.266 76.8667 224.266 77.4C224.333 77.8667 224.366 78.3667 224.366 78.9C224.366 79.6333 224.3 80.4333 224.166 81.3C224.1 82.1 223.9 82.8667 223.566 83.6C223.366 84.1333 223.3 84.4333 223.366 84.5C223.033 84.9 222.833 85.2 222.766 85.4C222.7 85.5333 222.666 85.6333 222.666 85.7C222.666 86.0333 222.566 86.3 222.366 86.5C222.233 86.6333 222.1 86.8 221.966 87C221.9 87.1333 221.866 87.3 221.866 87.5C221.6 88.1 221.333 88.4333 221.066 88.5C220.8 88.7667 220.633 89 220.566 89.2C220.1 89.5333 219.633 89.9 219.166 90.3C218.7 90.6333 218.166 90.9667 217.566 91.3C216.7 91.6333 216.166 91.9 215.966 92.1C215.566 92.3667 215.2 92.5333 214.866 92.6C214.133 93.1333 213.566 93.4333 213.166 93.5C212.9 93.5667 212.566 93.7333 212.166 94C212.1 94 212.033 93.9667 211.966 93.9C211.966 93.9 211.933 93.9 211.866 93.9C211.8 93.9 211.633 93.9667 211.366 94.1C211.233 94.2333 211.066 94.3 210.866 94.3C210.733 94.3667 210.6 94.4333 210.466 94.5C209.866 94.6333 209.5 94.7 209.366 94.7C209.233 94.7667 209.1 94.8 208.966 94.8C208.766 94.8 208.533 94.7333 208.266 94.6C208.066 94.8 207.833 94.9 207.566 94.9C207.433 94.9 207.333 94.8667 207.266 94.8C207.2 94.8 207.1 94.8 206.966 94.8C206.766 94.6667 206.566 94.5667 206.366 94.5C206.233 94.5 206.033 94.4667 205.766 94.4C205.233 94.4 204.833 94.3333 204.566 94.2C204.3 94.1333 203.933 93.8667 203.466 93.4C203.2 93.2 202.933 93.0333 202.666 92.9C202.466 92.7 202.266 92.5333 202.066 92.4C201.933 92.2667 201.8 92.1667 201.666 92.1C201.533 92.0333 201.4 91.9333 201.266 91.8C201.066 91.6667 200.766 91.5 200.366 91.3C200.033 91.0333 199.666 90.7667 199.266 90.5C198.866 90.3667 198.5 90.1 198.166 89.7C197.833 89.2333 197.566 88.8333 197.366 88.5C196.9 87.7667 196.666 87.1 196.666 86.5C196.666 86.1667 196.533 85.8667 196.266 85.6C196.333 85.2 196.366 84.8333 196.366 84.5C196.433 84.1667 196.433 83.8333 196.366 83.5C196.233 82.8333 196.233 82.1333 196.366 81.4C196.433 81.2 196.5 81.0333 196.566 80.9C196.633 80.7 196.666 80.5 196.666 80.3C196.8 80.0333 196.866 79.7667 196.866 79.5C197.066 78.9667 197.2 78.5333 197.266 78.2C197.4 77.8667 197.566 77.5667 197.766 77.3C197.966 77.0333 198.133 76.7667 198.266 76.5C198.466 76.2333 198.633 75.9333 198.766 75.6C199.1 75.4667 199.4 75.3667 199.666 75.3C199.933 75.2333 200.233 75.2 200.566 75.2C200.833 75.2 201.033 75.2333 201.166 75.3C201.7 75.1667 202.1 75.1 202.366 75.1C202.633 75.1 203 75.1667 203.466 75.3C204 75.3667 204.533 75.5 205.066 75.7C205.6 75.8333 206.1 76.0333 206.566 76.3C207.033 76.5 207.333 76.7 207.466 76.9C207.733 77.7667 207.666 78.5333 207.266 79.2C206.866 79.8667 206.333 80.3667 205.666 80.7L205.366 81.8C205.5 82 205.5 82.2333 205.366 82.5C205.233 82.7 205.233 82.9333 205.366 83.2C205.5 83.4 205.666 83.5667 205.866 83.7C206 83.7 206.1 83.7333 206.166 83.8C206.3 83.8667 206.433 83.9333 206.566 84C207.366 84.2 207.8 84.4333 207.866 84.7C208 85.5 208.266 85.9333 208.666 86H209.366C210.3 86.5333 211.366 86.8 212.566 86.8C213.366 86.8 214.066 86.6667 214.666 86.4C215.666 85.7333 216.4 85.0667 216.866 84.4C217.4 83.6667 217.666 82.8 217.666 81.8C217.466 81.1333 217.2 80.3667 216.866 79.5C216.6 78.5667 216.133 77.9333 215.466 77.6C215.4 77.0667 215 76.7333 214.266 76.6C213.8 76.2667 213.333 75.9667 212.866 75.7C212.4 75.3667 211.833 75.1333 211.166 75C210.633 74.8 210.166 74.5667 209.766 74.3C209.366 74.1 209 74 208.666 74C208.2 74 207.933 73.9667 207.866 73.9H207.366C206.833 73.7667 206.333 73.6 205.866 73.4C205.466 73.1333 205.033 72.9 204.566 72.7C204.1 72.7 203.8 72.6 203.666 72.4C203.6 72.2667 203.466 72.2 203.266 72.2C203.066 72.2 202.933 72.2333 202.866 72.3L201.466 70.8C201.266 70.6667 201.1 70.5 200.966 70.3C200.833 70.1 200.7 69.9 200.566 69.7C200.233 69.7 200 69.6667 199.866 69.6C199.733 69.4667 199.6 69.2667 199.466 69C199.2 68.6667 198.966 68.3 198.766 67.9C198.566 67.4333 198.433 66.9333 198.366 66.4C198.1 66.1333 198 65.8667 198.066 65.6C198.066 65.2667 198 64.9667 197.866 64.7C197.733 64.4333 197.6 64.1667 197.466 63.9C197.333 63.7667 197.233 63.6333 197.166 63.5C197.166 63.3 197.133 63.1333 197.066 63C196.6 62.5333 196.466 62.0333 196.666 61.5C196.866 60.9667 196.9 60.4333 196.766 59.9C196.766 59.5 196.8 59.2333 196.866 59.1C196.933 58.4333 197 57.8667 197.066 57.4C197.133 56.9333 197.166 56.5 197.166 56.1C197.233 55.9 197.233 55.6667 197.166 55.4V54.8C197.3 54.2 197.5 53.6 197.766 53C197.833 52.6667 197.9 52.4 197.966 52.2C198.033 51.9333 198.1 51.6333 198.166 51.3C198.433 51.0333 198.566 50.8 198.566 50.6C198.433 50 198.566 49.5 198.966 49.1C199.233 48.9667 199.466 48.8 199.666 48.6C199.866 48.2667 200 48.0667 200.066 48C200.2 47.8667 200.3 47.7667 200.366 47.7C200.7 47.3 200.966 47.0333 201.166 46.9C201.366 46.7 201.533 46.5333 201.666 46.4C201.933 46.2667 202.133 46.0333 202.266 45.7C203.133 45.1 203.833 44.5667 204.366 44.1C205.033 43.6333 205.7 43.2667 206.366 43C207.1 42.5333 208 42.2 209.066 42C209.6 41.8667 210.066 41.7667 210.466 41.7C210.933 41.5667 211.366 41.4333 211.766 41.3C211.9 41.4333 212.033 41.5 212.166 41.5C212.233 41.5 212.266 41.5 212.266 41.5C212.333 41.4333 212.4 41.4 212.466 41.4H212.766C213.033 41.4 213.2 41.4333 213.266 41.5C213.666 41.3667 214 41.3 214.266 41.3C215.133 41.3 215.866 41.5333 216.466 42ZM223.466 64.6C223.666 64.4667 223.866 64.3667 224.066 64.3C224.333 64.1667 224.566 64.0333 224.766 63.9C224.966 63.7667 225.4 63.6333 226.066 63.5C226.6 63.8333 226.833 64.2667 226.766 64.8C226.7 65.3333 226.5 65.7667 226.166 66.1C225.966 66.3 225.7 66.5 225.366 66.7C225.033 66.8333 224.7 66.9 224.366 66.9C223.966 66.9 223.6 66.7667 223.266 66.5C223.133 66.1 223.1 65.7667 223.166 65.5C223.233 65.2333 223.333 64.9333 223.466 64.6ZM226.466 60.7C226.466 60.3667 226.433 60.1 226.366 59.9C226.766 59.2333 227.2 58.9 227.666 58.9C228.466 58.9 228.866 59.2333 228.866 59.9C228.933 60.2333 228.833 60.5 228.566 60.7C228.366 60.8333 228.1 60.9667 227.766 61.1C227.1 60.9667 226.766 60.8667 226.766 60.8L226.466 60.7ZM202.766 37.9C202.966 38.1667 203.2 38.3667 203.466 38.5C203.733 38.7 203.833 38.9333 203.766 39.2C203.766 39.6667 203.533 40.0667 203.066 40.4L201.766 41.2C201.633 41.3333 201.433 41.4667 201.166 41.6C201.1 41.6 201.033 41.6333 200.966 41.7C200.9 41.7 200.833 41.7 200.766 41.7C200.1 41.7 199.666 41.3 199.466 40.5C199.6 39.9667 199.7 39.5667 199.766 39.3C199.9 39.0333 200.133 38.8333 200.466 38.7C201.066 38.1 201.533 37.8333 201.866 37.9H202.766ZM198.266 95.8C198 95.5333 197.7 95.4 197.366 95.4L196.466 93.3C196.933 92.4333 197.466 92 198.066 92C198.2 92 198.466 92.0667 198.866 92.2C199.266 92.6667 199.766 92.9667 200.366 93.1C200.566 93.4333 200.766 93.7333 200.966 94C201.233 94.3333 201.2 94.6667 200.866 95C200.533 95.2 200.166 95.3667 199.766 95.5C199.366 95.7 198.866 95.8 198.266 95.8ZM214.166 81.4C214.566 81.4667 214.933 81.7333 215.266 82.2C215.666 82.6 215.733 83.0667 215.466 83.6C215.4 83.7333 215.133 84 214.666 84.4C214.2 84.7333 213.8 84.9667 213.466 85.1H213.166C212.833 85.1 212.6 85.0667 212.466 85C212.2 84.8667 211.933 84.8 211.666 84.8C211.333 84.0667 211.333 83.5333 211.666 83.2C212.066 82.8667 212.333 82.6333 212.466 82.5C212.733 82.3667 212.966 82.2667 213.166 82.2C213.366 82.1333 213.533 82.0333 213.666 81.9L214.166 81.4ZM230.865 77.8H231.465C231.998 78.1333 232.398 78.5667 232.665 79.1C232.998 79.6333 232.998 80.2333 232.665 80.9C232.665 81.7 232.632 82.2 232.565 82.4L232.265 83.2C231.865 83.4667 231.465 83.6 231.065 83.6H230.865C230.332 82.6667 230.132 81.8 230.265 81C230.398 80.2667 230.298 79.6 229.965 79C230.098 78.8 230.232 78.6 230.365 78.4C230.498 78.1333 230.665 77.9333 230.865 77.8ZM231.465 74C231.932 73.8667 232.232 74.2 232.365 75C232.498 75.8667 232.398 76.4 232.065 76.6C231.332 76.7333 230.965 76.4 230.965 75.6C230.832 74.8667 230.998 74.3333 231.465 74ZM270.265 89.6C269.932 89.1333 269.798 88.6 269.865 88C269.932 87.3333 270.032 86.8333 270.165 86.5C270.498 86.1 270.898 85.8667 271.365 85.8C271.832 85.6667 272.298 85.6 272.765 85.6C273.098 85.8 273.332 85.9333 273.465 86C273.598 86.0667 273.698 86.1333 273.765 86.2C274.032 87.4667 273.765 88.4667 272.965 89.2C272.432 89.3333 272.032 89.4667 271.765 89.6C271.632 89.6667 271.398 89.7 271.065 89.7C270.732 89.7 270.465 89.6667 270.265 89.6ZM251.065 66.5C251.265 65.9667 251.432 65.6333 251.565 65.5C251.698 65.3667 251.832 65.2667 251.965 65.2L252.565 64.9C252.965 65.0333 253.232 65.3 253.365 65.7C253.498 66.1 253.432 66.4667 253.165 66.8C252.898 67.0667 252.598 67.2 252.265 67.2C251.732 67.2 251.332 66.9667 251.065 66.5ZM241.965 62.8C242.298 62.6667 242.565 62.4667 242.765 62.2C242.965 61.8667 243.265 61.7 243.665 61.7C243.798 61.3667 244.098 61.1667 244.565 61.1C245.032 60.9667 245.198 60.6333 245.065 60.1C245.198 59.7667 245.298 59.4667 245.365 59.2C245.498 58.9333 245.532 58.6333 245.465 58.3C245.665 57.7667 245.865 57.3 246.065 56.9C246.265 56.4333 246.432 55.9333 246.565 55.4C246.832 55.1333 246.998 54.8667 247.065 54.6C247.198 54.2667 247.332 54.0333 247.465 53.9C247.598 53.6333 247.765 53.4333 247.965 53.3C248.165 53.1 248.332 52.8667 248.465 52.6C248.598 52.4 248.732 52.2 248.865 52C248.998 51.8 249.132 51.5333 249.265 51.2C249.598 50.8667 249.832 50.6333 249.965 50.5C250.165 50.3667 250.298 50.2667 250.365 50.2L252.065 49.1C252.532 48.8333 253.032 48.7 253.565 48.7C253.765 48.5 254.032 48.3667 254.365 48.3C254.765 48.2333 255.132 48.2 255.465 48.2C256.065 48.2 256.465 48.2667 256.665 48.4C256.732 48.4 256.798 48.4 256.865 48.4C256.932 48.3333 257.032 48.3 257.165 48.3C257.498 48.3 257.865 48.4 258.265 48.6L259.965 49.2C260.432 49.3333 260.832 49.5 261.165 49.7C261.565 49.8333 261.865 50.0667 262.065 50.4L263.065 50.8C264.198 51.0667 264.865 51.4 265.065 51.8C265.332 52.2667 265.665 52.6333 266.065 52.9C266.332 53.4333 266.698 53.9333 267.165 54.4C267.565 54.8 267.832 55.4333 267.965 56.3C268.298 57.7667 268.598 58.9333 268.865 59.8C268.932 59.9333 268.965 60.0667 268.965 60.2C268.965 60.2667 268.998 60.3667 269.065 60.5C269.198 60.7 269.298 60.9667 269.365 61.3C269.498 61.5667 269.498 61.8 269.365 62C269.298 62.2667 269.298 62.5333 269.365 62.8C269.232 63.9333 269.132 65 269.065 66C269.065 66.9333 268.998 67.8667 268.865 68.8C268.732 70.0667 268.532 71.3 268.265 72.5C268.465 73.0333 268.565 73.6 268.565 74.2C268.632 74.7333 268.632 75.3667 268.565 76.1C268.565 76.5 268.532 76.9 268.465 77.3C268.465 77.7 268.465 78.1 268.465 78.5C268.198 79.1 268.098 79.4333 268.165 79.5C268.032 79.9 267.965 80.2 267.965 80.4C267.965 80.6 267.932 80.8 267.865 81C267.732 81.3333 267.732 81.7 267.865 82.1L267.565 82.9C267.498 83.0333 267.432 83.2 267.365 83.4C267.365 83.5333 267.332 83.6667 267.265 83.8C267.132 84.2 267.065 84.5 267.065 84.7C267.065 84.9667 266.998 85.2333 266.865 85.5V86.9C266.798 87.1667 266.765 87.6333 266.765 88.3L267.665 90.6C267.932 91.1333 268.065 91.5667 268.065 91.9C268.198 92.3 268.432 92.5 268.765 92.5C268.965 92.5 269.132 92.4667 269.265 92.4C269.398 92.3333 269.532 92.3 269.665 92.3C269.798 92.3 269.932 92.2333 270.065 92.1L270.765 91.8C271.165 91.9333 271.465 92 271.665 92C272.265 92 272.698 91.8 272.965 91.4C273.298 91.3333 273.565 91.3 273.765 91.3C274.165 91.3 274.465 91.6 274.665 92.2C274.932 93.0667 275.165 93.9 275.365 94.7C275.498 95.2333 275.565 95.7667 275.565 96.3C275.565 96.8333 275.398 97.3 275.065 97.7C274.932 97.9 274.798 98.1 274.665 98.3C274.598 98.5667 274.532 98.7667 274.465 98.9C273.532 99.8333 272.598 100.367 271.665 100.5C270.798 100.7 269.765 100.8 268.565 100.8C267.965 100.467 267.398 100.3 266.865 100.3C265.998 100.3 265.365 100.1 264.965 99.7C264.698 99.4333 264.432 99.2333 264.165 99.1C263.965 98.9667 263.765 98.8333 263.565 98.7C263.365 98.1 263.098 97.6333 262.765 97.3C262.565 97.1 262.365 96.8667 262.165 96.6C262.032 96.4 261.865 96.1667 261.665 95.9C261.598 95.7667 261.532 95.6333 261.465 95.5C261.398 95.4333 261.332 95.3333 261.265 95.2C260.932 94.4667 260.665 94.0667 260.465 94C260.332 93.8667 260.232 93.7333 260.165 93.6C260.165 93.5333 260.132 93.4333 260.065 93.3C259.732 92.9 259.432 92.5333 259.165 92.2C258.898 91.8667 258.765 91.5333 258.765 91.2C258.765 90.5333 258.598 89.9667 258.265 89.5C258.332 89.2333 258.365 89.0333 258.365 88.9C258.432 88.7 258.432 88.5 258.365 88.3C258.298 87.8333 258.298 87.4667 258.365 87.2C258.298 86.8667 258.232 86.5667 258.165 86.3C258.165 85.9667 258.232 85.5333 258.365 85C258.432 84.7333 258.498 84.5 258.565 84.3C258.698 84.0333 258.832 83.7667 258.965 83.5C259.232 83.1667 259.365 82.6333 259.365 81.9C259.232 81.5667 259.132 81.2667 259.065 81C259.065 80.7333 259.132 80.4 259.265 80C258.998 79.7333 258.932 79.5 259.065 79.3C259.132 79.1 259.098 78.8 258.965 78.4C259.098 78.0667 259.232 77.7667 259.365 77.5C259.498 77.2333 259.632 76.9667 259.765 76.7C259.898 76.5 259.998 76.2667 260.065 76C260.198 75.7333 260.332 75.4333 260.465 75.1C260.598 74.3667 260.665 73.6667 260.665 73C260.732 72.2667 260.765 71.6333 260.765 71.1C260.632 70.4333 260.565 69.9333 260.565 69.6C260.565 69.3333 260.565 69.0667 260.565 68.8C260.565 68.5333 260.532 68.3 260.465 68.1C260.332 67.7 260.298 67.4667 260.365 67.4C260.098 66.5333 259.965 65.7667 259.965 65.1C259.965 64.5667 259.798 64.2 259.465 64C259.532 63.6667 259.532 63.2667 259.465 62.8C259.465 62.3333 259.398 61.9333 259.265 61.6C258.998 61.2667 258.832 60.9667 258.765 60.7C258.632 60.4333 258.565 60.1667 258.565 59.9C258.498 59.4333 258.298 59.1333 257.965 59C257.765 58.8667 257.598 58.7667 257.465 58.7C257.398 58.7 257.365 58.7 257.365 58.7C256.965 58.7 256.532 58.5333 256.065 58.2C255.798 58.0667 255.565 58 255.365 58C255.232 58 254.965 58.1333 254.565 58.4H254.065C253.398 58.4 252.932 58.6333 252.665 59.1L251.365 60C251.098 60.2667 250.898 60.5333 250.765 60.8C250.432 61.6 250.265 62 250.265 62C249.998 62.4667 249.832 62.8333 249.765 63.1C249.698 63.3667 249.665 63.6667 249.665 64C249.465 64.2667 249.298 64.6333 249.165 65.1L248.865 66.4C248.198 67.4667 247.932 68.3667 248.065 69.1C248.065 69.5 247.965 70.1 247.765 70.9C247.632 71.6333 247.398 72.1667 247.065 72.5C246.932 73.0333 246.832 73.4 246.765 73.6C246.698 73.7333 246.532 73.9667 246.265 74.3C245.932 74.6333 245.732 74.8667 245.665 75L245.065 75.9C244.998 76.9667 245.065 77.8333 245.265 78.5C245.398 78.8333 245.498 79.1333 245.565 79.4C245.632 79.6667 245.698 79.9667 245.765 80.3C245.898 80.9667 246.032 81.4 246.165 81.6L246.465 82.2C246.665 82.8667 246.765 83.3 246.765 83.5C247.098 84.1 247.298 84.6 247.365 85C247.432 85.3333 247.465 85.6667 247.465 86C247.465 86.3333 247.465 86.6333 247.465 86.9C247.465 87.1667 247.532 87.4 247.665 87.6V89.9C247.598 90.4333 247.498 90.7667 247.365 90.9C247.232 91.0333 247.132 91.1333 247.065 91.2C246.998 91.2 246.932 91.2667 246.865 91.4C246.798 91.6 246.632 91.8333 246.365 92.1C245.965 92.6333 245.632 93 245.365 93.2C245.165 93.4 244.998 93.5333 244.865 93.6C244.465 93.8 244.165 94 243.965 94.2C243.565 94.3333 243.332 94.4 243.265 94.4H243.065C242.998 94.4 242.765 94.4667 242.365 94.6C242.098 94.6667 241.732 94.7 241.265 94.7C240.932 94.7 240.732 94.6667 240.665 94.6C240.332 94.4667 239.932 94.3333 239.465 94.2C239.065 94.1333 238.598 94.1 238.065 94.1C237.398 94.1 236.898 93.9667 236.565 93.7C235.765 92.7 235.198 91.9333 234.865 91.4C234.665 90.7333 234.498 90.3 234.365 90.1C234.298 89.9 234.198 89.7 234.065 89.5C233.798 88.9 233.765 88.2 233.965 87.4C234.032 87.2667 234.098 87.1333 234.165 87C234.232 86.8667 234.298 86.7333 234.365 86.6C234.298 86 234.432 85.3 234.765 84.5C234.898 84.1667 234.998 83.8667 235.065 83.6C235.132 83.2667 235.132 82.9333 235.065 82.6C235.132 82.3333 235.198 82.1 235.265 81.9C235.398 81.7 235.532 81.5 235.665 81.3C235.932 80.9667 236.032 80.6333 235.965 80.3C235.898 79.9 235.832 79.6 235.765 79.4C235.698 79.2 235.598 78.9 235.465 78.5C235.332 78.1 235.198 77.8333 235.065 77.7L234.865 77.4C234.865 77.0667 234.832 76.8 234.765 76.6C234.765 76.4 234.732 76.1667 234.665 75.9C234.598 75.5 234.665 75.2333 234.865 75.1C234.798 74.5 234.798 74.2 234.865 74.2C234.865 74.0667 234.832 73.9333 234.765 73.8C234.765 73.6 234.765 73.4 234.765 73.2C234.765 72.8667 234.832 72.6333 234.965 72.5C234.765 72.1667 234.632 71.7333 234.565 71.2C234.498 70.6 234.465 70.1 234.465 69.7C234.465 68.9667 234.465 68.3667 234.465 67.9C234.465 67.3667 234.498 66.8333 234.565 66.3C234.632 65.9 234.632 65.5 234.565 65.1C234.565 64.6333 234.532 64.2 234.465 63.8C234.532 63.2667 234.598 62.7333 234.665 62.2C234.798 61.6667 234.932 61.1333 235.065 60.6C235.132 59.9333 235.398 59.2667 235.865 58.6C236.132 58 236.165 57.3333 235.965 56.6C235.832 56.4667 235.698 56.2333 235.565 55.9C235.432 55.5667 235.432 55.3 235.565 55.1C235.165 54.7 234.965 54.0667 234.965 53.2C234.965 52.8 234.932 52.4 234.865 52C234.865 51.6 234.832 51.2333 234.765 50.9C234.898 50.1 234.932 49.2333 234.865 48.3C234.798 47.3667 234.698 46.5 234.565 45.7C234.832 45.0333 234.865 44.3333 234.665 43.6C234.465 43.0667 234.432 42.5 234.565 41.9L234.265 40.7C234.065 40.4333 233.798 40.2667 233.465 40.2L232.765 39.8C232.432 39.2667 232.198 38.8333 232.065 38.5C231.932 38.3667 231.832 38.2333 231.765 38.1C231.698 37.9667 231.598 37.8333 231.465 37.7L231.165 36.8C231.032 36.4667 230.832 36.2667 230.565 36.2C230.432 35.7333 230.232 35.2667 229.965 34.8C229.765 34.3333 229.698 33.8667 229.765 33.4C230.032 32.6667 230.198 32.1333 230.265 31.8C230.332 31.4667 230.332 31.1667 230.265 30.9C230.198 30.4333 230.265 29.9333 230.465 29.4C230.798 29.0667 231.065 28.7667 231.265 28.5C231.532 28.1667 231.765 27.9333 231.965 27.8L232.965 27.1C233.765 27.1 234.398 26.9333 234.865 26.6C235.398 26.2667 235.932 26.1 236.465 26.1C236.998 26.1 237.465 26.2333 237.865 26.5C238.598 26.5 239.165 26.5667 239.565 26.7C239.965 26.7667 240.265 27.0333 240.465 27.5C241.265 27.7 242.098 28.2667 242.965 29.2C243.232 30.5333 243.432 31.9333 243.565 33.4C243.698 34.8667 243.765 36.2667 243.765 37.6L244.065 38.5C244.065 39.0333 243.932 39.4667 243.665 39.8C243.332 40.2667 243.132 40.6667 243.065 41C242.998 41.2667 242.965 41.5667 242.965 41.9C243.032 42.1667 243.065 42.5 243.065 42.9C242.998 43.4333 242.998 43.7333 243.065 43.8V44.1C242.932 45.2333 242.932 46.2333 243.065 47.1C243.198 47.9667 243.332 48.7333 243.465 49.4C243.465 49.7333 243.465 50.0667 243.465 50.4C243.465 50.6667 243.398 50.9667 243.265 51.3C242.998 51.9 242.965 52.5667 243.165 53.3C243.098 53.5667 243.065 53.8333 243.065 54.1C243.065 54.3 243.032 54.5333 242.965 54.8C242.832 55.4667 242.665 55.9 242.465 56.1C242.532 56.4333 242.532 56.7667 242.465 57.1C242.398 57.3667 242.298 57.6667 242.165 58C242.365 58.8 242.232 59.4667 241.765 60V61.4C241.765 61.6667 241.832 62.1333 241.965 62.8ZM273.165 82C273.032 82.8667 272.832 83.3333 272.565 83.4C272.298 83.4667 271.965 83.5333 271.565 83.6C271.232 82.6667 271.132 82.1 271.265 81.9C271.465 81.4333 271.798 81.2 272.265 81.2C272.465 81.2 272.598 81.2333 272.665 81.3C272.932 81.3667 273.098 81.6 273.165 82ZM257.065 62.9L256.765 63.8C256.632 63.9333 256.432 64 256.165 64C256.032 64 255.932 63.9667 255.865 63.9C255.732 63.9 255.632 63.9333 255.565 64C255.498 64 255.398 64 255.265 64C254.865 64 254.432 63.9333 253.965 63.8C253.565 63.6 253.398 63.2667 253.465 62.8C253.332 62.1333 253.365 61.7667 253.565 61.7L253.865 61.1C254.065 60.9667 254.265 60.8667 254.465 60.8C254.665 60.6667 254.832 60.5667 254.965 60.5C255.032 60.4333 255.165 60.4 255.365 60.4C255.565 60.4 255.765 60.4667 255.965 60.6C256.165 60.6667 256.332 60.7667 256.465 60.9C256.532 61.0333 256.732 61.1667 257.065 61.3C257.198 61.6333 257.265 61.9333 257.265 62.2C257.332 62.4667 257.265 62.7 257.065 62.9ZM247.565 33.2C248.632 34 249.165 34.9 249.165 35.9C249.232 36.8333 249.032 37.6333 248.565 38.3C248.298 38.5 247.932 38.6 247.465 38.6C247.132 38.6 246.765 38.5333 246.365 38.4C246.232 38.1333 246.098 37.9 245.965 37.7C245.832 37.4333 245.798 37.1333 245.865 36.8C245.532 36.3333 245.398 35.7333 245.465 35C245.598 34.2 245.932 33.7 246.465 33.5C246.598 33.5 246.965 33.4 247.565 33.2ZM253.665 37.9C253.798 38.3 253.865 38.6 253.865 38.8C253.932 38.9333 253.998 39.0667 254.065 39.2C253.932 39.5333 253.732 39.9333 253.465 40.4C253.198 40.8667 252.898 41.0333 252.565 40.9C252.298 40.8333 252.065 40.6667 251.865 40.4C251.665 40.1333 251.598 39.8333 251.665 39.5C251.932 38.7667 252.165 38.3333 252.365 38.2C252.565 38 252.998 37.9 253.665 37.9ZM277.968 64.2L278.468 63.9C279.001 63.5667 279.368 63.4 279.568 63.4C279.768 63.4 279.935 63.4333 280.068 63.5C280.735 63.8333 281.235 64.4 281.568 65.2C281.901 66 281.801 66.6667 281.268 67.2C281.001 67.4667 280.635 67.6 280.168 67.6C279.968 67.6 279.735 67.5333 279.468 67.4C279.201 67.2 278.901 66.7667 278.568 66.1C278.435 65.9667 278.268 65.7 278.068 65.3C277.868 64.9 277.835 64.5333 277.968 64.2ZM279.768 60.1L279.068 59.9C278.668 59.4333 278.401 58.8667 278.268 58.2C278.201 57.6667 278.035 57.2667 277.768 57C277.768 56.6667 277.768 56.4 277.768 56.2C277.768 55.9333 277.835 55.6333 277.968 55.3C278.101 55.0333 278.168 54.7667 278.168 54.5C278.235 54.2333 278.301 53.9667 278.368 53.7L278.968 53.3C279.235 53.1667 279.435 53.0333 279.568 52.9C279.901 52.4333 280.268 52.1 280.668 51.9L281.168 51.4C281.435 51.0667 281.768 50.9 282.168 50.9H285.068C285.201 50.8333 285.401 50.8 285.668 50.8C286.135 50.8 286.501 50.9 286.768 51.1C287.635 51.2333 288.235 51.3667 288.568 51.5C288.968 51.6333 289.235 51.8 289.368 52C289.635 52.4667 290.035 52.8333 290.568 53.1C290.701 53.3667 290.835 53.7 290.968 54.1C291.035 54.2333 291.068 54.4 291.068 54.6C291.135 54.7333 291.235 54.8667 291.368 55C291.501 55.8 291.568 56.6 291.568 57.4C291.635 58.1333 291.568 58.9 291.368 59.7C291.368 60.4333 291.435 61.0667 291.568 61.6C291.701 62.1333 291.701 62.6 291.568 63C291.368 63.4 291.268 63.7333 291.268 64C291.335 64.8 291.335 65.3333 291.268 65.6C291.201 65.8 291.201 66.0667 291.268 66.4C291.335 66.6667 291.535 66.9 291.868 67.1C292.135 67.3 292.335 67.6667 292.468 68.2V68.7C292.535 69.4333 292.568 70.0333 292.568 70.5C292.568 70.9667 292.601 71.4333 292.668 71.9C292.735 72.8333 292.668 73.8 292.468 74.8C292.468 75 292.468 75.2333 292.468 75.5C292.535 75.7 292.535 75.9 292.468 76.1C292.335 76.6333 292.301 77.0333 292.368 77.3L292.468 78C292.668 78.9333 292.735 79.5333 292.668 79.8C292.535 80.3333 292.568 80.7667 292.768 81.1C292.768 81.7 292.868 82.2 293.068 82.6C293.068 83.4667 293.201 84.3 293.468 85.1L293.768 86.1C293.768 86.8333 293.801 87.2667 293.868 87.4L294.068 88.2C294.068 88.8667 293.968 89.5 293.768 90.1C293.568 90.6333 293.301 91.1667 292.968 91.7C292.635 91.9 292.301 92.2667 291.968 92.8L290.768 93.6C290.568 93.7333 290.335 93.8667 290.068 94C289.868 94.1333 289.668 94.2667 289.468 94.4C288.801 94.3333 288.368 94 288.168 93.4C288.035 93.4 287.935 93.3667 287.868 93.3C287.868 93.3 287.801 93.3 287.668 93.3C287.535 93.3 287.335 93.3667 287.068 93.5C286.668 93.7667 286.401 93.9 286.268 93.9H285.968H285.268C284.935 93.9 284.635 93.9667 284.368 94.1C283.701 93.8333 283.201 93.4 282.868 92.8C282.735 92.4667 282.601 92.2 282.468 92C282.335 91.7333 282.268 91.5333 282.268 91.4C282.135 91.2667 282.035 91.1667 281.968 91.1C281.901 91.0333 281.835 90.9333 281.768 90.8C281.701 90.2 281.635 89.9 281.568 89.9C281.568 88.7667 281.635 88 281.768 87.6C281.901 87.2 282.035 86.8333 282.168 86.5C282.635 85.3 282.868 84.6 282.868 84.4C283.268 82.8 283.668 81.6333 284.068 80.9C284.401 80.1667 284.568 79.1667 284.568 77.9C284.768 77.2333 284.768 76.6 284.568 76C284.368 75.4 284.368 74.8 284.568 74.2C284.235 73.4 284.035 72.8 283.968 72.4C283.968 71.9333 284.001 71.5333 284.068 71.2C284.068 70.9333 284.035 70.7333 283.968 70.6C283.968 70.4667 283.968 70.3333 283.968 70.2C284.101 69.2667 284.168 68.6667 284.168 68.4C284.235 68.0667 284.235 67.8 284.168 67.6C284.035 67.1333 284.001 66.7333 284.068 66.4C283.868 65.6667 283.801 65.0333 283.868 64.5C283.868 63.8333 283.835 63.3333 283.768 63C283.101 62.2 282.568 61.6667 282.168 61.4C281.768 61.1333 281.468 60.9333 281.268 60.8C281.001 60.6667 280.735 60.5667 280.468 60.5C280.268 60.3667 280.035 60.2333 279.768 60.1ZM278.668 45.2C278.668 44.4 278.635 43.9333 278.568 43.8C278.168 42.9333 278.135 42.2 278.468 41.6C278.601 41.3333 278.735 41 278.868 40.6C279.401 40.2 279.835 39.7333 280.168 39.2C280.568 38.6667 281.068 38.2667 281.668 38C282.268 37.6667 282.735 37.4333 283.068 37.3H283.268C283.535 37.3 283.735 37.3333 283.868 37.4C284.135 37.2667 284.368 37.2 284.568 37.2H285.568C285.701 37.2 285.901 37.2667 286.168 37.4C286.768 38.1333 287.368 38.6667 287.968 39C288.301 39.2667 288.568 39.6333 288.768 40.1C288.768 40.4333 288.901 40.8 289.168 41.2C289.368 42.2 289.301 43.1333 288.968 44C288.701 44.8 288.068 45.2667 287.068 45.4C286.468 45.6667 286.168 45.8333 286.168 45.9L285.968 46.1C285.635 46.2333 285.368 46.3667 285.168 46.5C284.968 46.5667 284.735 46.6667 284.468 46.8C284.068 47 283.535 47.1 282.868 47.1C282.335 47.2333 281.968 47.3333 281.768 47.4C281.635 47.4 281.535 47.4 281.468 47.4C280.935 47.4 280.568 47.2667 280.368 47C279.835 46.6 279.435 46.3667 279.168 46.3C278.835 45.9667 278.668 45.6 278.668 45.2ZM292.668 37.4L292.068 37.9C291.868 37.9667 291.568 38 291.168 38C290.235 38 289.701 37.6 289.568 36.8C289.501 36.4667 289.601 36.0333 289.868 35.5C290.135 34.9667 290.435 34.6333 290.768 34.5H291.068C291.268 34.5 291.401 34.4667 291.468 34.4C291.535 34.3333 291.701 34.3 291.968 34.3H292.168C292.901 34.9 293.235 35.5 293.168 36.1C293.168 36.6333 293.001 37.0667 292.668 37.4ZM294.668 95.9L294.068 95.7C293.601 95.4333 293.401 94.8333 293.468 93.9C293.601 93.5667 293.735 93.3333 293.868 93.2C294.068 93.1333 294.335 93 294.668 92.8C295.068 92.6 295.468 92.5 295.868 92.5C296.601 92.5 297.035 92.7333 297.168 93.2C297.168 93.6 297.068 93.9333 296.868 94.2C296.801 94.3333 296.635 94.5667 296.368 94.9C296.101 95.2333 295.901 95.4333 295.768 95.5L294.668 95.9ZM319.12 76C319.52 76.6667 319.72 77.0667 319.72 77.2V77.9C319.453 78.1667 319.22 78.5 319.02 78.9C318.886 79.0333 318.753 79.1667 318.62 79.3C318.486 79.4333 318.286 79.5 318.02 79.5H317.82C317.553 79.0333 317.086 78.5333 316.42 78C316.286 77.6667 316.286 77.3667 316.42 77.1C316.553 76.7667 316.72 76.4333 316.92 76.1C317.186 75.7 317.586 75.5 318.12 75.5C318.653 75.5 318.986 75.6667 319.12 76ZM319.22 81.4C319.353 81.7333 319.386 81.9667 319.32 82.1C319.253 82.3 319.22 82.6 319.22 83C318.886 83.3333 318.52 83.5 318.12 83.5C317.72 83.5 317.353 83.3333 317.02 83C316.886 82.4 316.953 81.9667 317.22 81.7C317.553 81.3667 317.92 81.2 318.32 81.2C318.72 81.2 319.02 81.2667 319.22 81.4ZM318.62 64.5L318.92 64.3C319.453 63.9667 319.886 63.8 320.22 63.8H321.12C322.186 63.4667 322.953 63.2333 323.42 63.1C323.886 62.9667 324.32 62.7333 324.72 62.4C325.053 62.4 325.353 62.3333 325.62 62.2C326.286 61.6667 326.72 61.3333 326.92 61.2C327.186 61 327.386 60.8667 327.52 60.8C327.72 60.6667 327.886 60.4333 328.02 60.1C328.486 59.7667 328.853 59.3667 329.12 58.9C329.32 58.5667 329.72 58.2 330.32 57.8C330.986 57 331.386 56.3333 331.52 55.8C331.586 55.5333 331.62 55.2667 331.62 55C331.62 54.7333 331.653 54.4667 331.72 54.2C331.653 54 331.62 53.6 331.62 53C331.553 52.8 331.52 52.6 331.52 52.4C331.52 52.2 331.486 52.0333 331.42 51.9C331.086 51.5667 330.82 51.1 330.62 50.5C330.486 50.1667 330.32 49.9 330.12 49.7C329.986 49.5 329.82 49.3 329.62 49.1L328.62 49.2C327.82 49.2 327.12 49.6 326.52 50.4L325.82 51.6C325.753 52.7333 325.62 53.8 325.42 54.8C325.22 55.8667 324.92 56.7667 324.52 57.5C324.12 58.1667 323.286 58.5 322.02 58.5C321.42 58.5 320.92 58.3667 320.52 58.1H318.62C318.286 58.1667 317.986 58.1333 317.72 58C317.453 57.8 317.32 57.6 317.32 57.4L317.02 56.7C316.886 56.0333 316.786 55.6 316.72 55.4C316.72 55.1333 316.686 54.9333 316.62 54.8C316.486 54.4667 316.453 54.1667 316.52 53.9L317.22 51.3C317.353 50.7667 317.486 50.4333 317.62 50.3L317.82 49.5L318.32 48.5C318.986 47.5 319.52 46.7333 319.92 46.2C320.386 45.6 320.92 45.1333 321.52 44.8C321.986 44.4667 322.253 44.2667 322.32 44.2C322.453 44.1333 322.553 44.1 322.62 44.1C322.886 44.1 323.053 44.0667 323.12 44C323.52 43.8667 323.82 43.7333 324.02 43.6C324.286 43.4667 324.553 43.4 324.82 43.4C325.42 43.2667 325.82 43.0667 326.02 42.8C326.753 42.6667 327.42 42.4 328.02 42H328.82C329.02 42 329.253 42.0667 329.52 42.2C329.986 42.2 330.253 42.1667 330.32 42.1C331.053 42.3 331.586 42.5333 331.92 42.8C332.386 43.1333 332.853 43.4 333.32 43.6C333.786 43.7333 334.12 43.8 334.32 43.8C334.92 44.1333 335.286 44.3667 335.42 44.5C335.62 44.6333 335.82 44.8333 336.02 45.1C336.153 45.3667 336.32 45.5333 336.52 45.6C336.586 45.6667 336.72 45.8667 336.92 46.2C337.053 46.5333 337.186 46.8333 337.32 47.1C337.453 47.3667 337.62 47.6333 337.82 47.9C338.286 48.1667 338.586 48.6333 338.72 49.3C338.853 49.9667 339.053 50.5 339.32 50.9L339.02 54.7C339.02 55.3667 338.953 56.0333 338.82 56.7C338.686 57.3667 338.553 58.0333 338.42 58.7C338.02 59.2333 337.786 59.8 337.72 60.4C337.32 60.8 337.02 61.0667 336.82 61.2C336.686 61.3333 336.553 61.5 336.42 61.7C336.353 61.8333 336.286 62 336.22 62.2C336.02 62.3333 335.853 62.5 335.72 62.7C334.853 63.3667 334.253 63.7667 333.92 63.9C333.786 63.9667 333.653 64.0333 333.52 64.1C333.386 64.1667 333.253 64.2667 333.12 64.4C332.786 64.5333 332.453 64.6667 332.12 64.8C331.786 64.8667 331.42 64.9667 331.02 65.1C330.153 65.4333 329.553 65.8333 329.22 66.3C328.353 66.5667 327.486 67.1333 326.62 68C327.153 68.2 327.486 68.3667 327.62 68.5C327.82 68.5667 328.086 68.6333 328.42 68.7C328.486 68.9 328.686 69.0667 329.02 69.2C329.22 69.2667 329.386 69.4667 329.52 69.8C330.053 70.0667 330.42 70.3 330.62 70.5C330.82 70.6333 330.986 70.7667 331.12 70.9C331.32 70.9667 331.52 71.0667 331.72 71.2C332.386 72.2 332.92 73.1667 333.32 74.1C333.32 74.8333 333.453 75.3 333.72 75.5C333.853 76.2333 333.92 76.7333 333.92 77C333.92 77.2 333.92 77.4 333.92 77.6C333.853 78 333.886 78.3667 334.02 78.7C333.886 79.1667 333.92 79.6 334.12 80L334.42 81.3C334.753 81.4333 334.886 81.6667 334.82 82C334.753 82.3333 334.686 82.6667 334.62 83C334.62 83.4 334.72 83.8 334.92 84.2C334.986 84.4667 335.02 84.8 335.02 85.2C335.086 85.5333 335.153 85.8667 335.22 86.2C335.353 86.4667 335.486 86.7 335.62 86.9C335.886 87.3 336.086 87.7667 336.22 88.3C336.553 88.5 336.82 88.6333 337.02 88.7C337.22 88.7667 337.353 88.8333 337.42 88.9L337.82 89.2C337.886 89.2667 338.02 89.3 338.22 89.3C338.42 89.3 338.686 89.1333 339.02 88.8C339.353 88.4667 339.753 88.2333 340.22 88.1C340.486 87.9667 340.753 87.8 341.02 87.6C341.286 87.4 341.586 87.3 341.92 87.3C342.053 87.3 342.186 87.3333 342.32 87.4C342.453 87.8 342.686 88.0667 343.02 88.2C343.753 88.7333 344.12 89.2333 344.12 89.7C344.253 89.9667 344.386 90.1667 344.52 90.3C344.52 90.4333 344.52 90.6 344.52 90.8C344.586 91 344.62 91.2 344.62 91.4C344.753 91.8 344.586 92.1 344.12 92.3C344.186 93.1667 343.953 93.8667 343.42 94.4C343.353 94.6 343.153 94.8667 342.82 95.2L342.12 95.7C341.586 96.0333 341.22 96.2333 341.02 96.3C340.82 96.4333 340.653 96.5667 340.52 96.7C339.986 96.9667 339.52 97.1667 339.12 97.3C338.786 97.4333 338.353 97.5 337.82 97.5C337.353 97.5 336.986 97.4667 336.72 97.4C335.986 97.1333 335.62 96.9333 335.62 96.8C334.753 96.4667 333.986 96.1667 333.32 95.9C332.72 95.6333 332.12 95.4333 331.52 95.3C330.32 94.9667 329.453 94.6667 328.92 94.4C328.853 94.2667 328.786 94.1333 328.72 94C328.72 93.9333 328.653 93.8667 328.52 93.8C328.32 93.6667 328.22 93.4 328.22 93C327.953 92.8 327.72 92.6 327.52 92.4C327.32 92.1333 327.253 91.8333 327.32 91.5C326.92 91.1667 326.753 90.7333 326.82 90.2C326.82 89.6667 326.72 89.1667 326.52 88.7L325.72 88C325.253 87.6667 324.886 87.2667 324.62 86.8C324.42 86.3333 324.253 85.8333 324.12 85.3C323.853 84.8333 323.82 84.4667 324.02 84.2C323.353 83.4667 323.186 82.5333 323.52 81.4C323.386 81 323.353 80.7 323.42 80.5V79.7C323.286 79.0333 323.22 78.5333 323.22 78.2C323.22 78 323.22 77.8 323.22 77.6C323.22 77.3333 323.186 77.0667 323.12 76.8C323.12 76.5333 323.086 76.3333 323.02 76.2C323.02 76 322.853 75.8333 322.52 75.7C322.386 75.3667 322.253 75.1667 322.12 75.1C322.053 75.0333 321.953 74.9667 321.82 74.9C321.686 74.5667 321.553 74.3667 321.42 74.3C321.086 73.9 320.82 73.6667 320.62 73.6C320.42 73.4667 320.22 73.4 320.02 73.4C319.82 73.4667 319.586 73.5 319.32 73.5C319.12 73.5 318.92 73.5 318.72 73.5C318.52 73.4333 318.286 73.4 318.02 73.4C317.886 73.4 317.786 73.4333 317.72 73.5C317.186 73.6333 316.82 73.7 316.62 73.7C316.42 73.7 316.253 73.7333 316.12 73.8C315.386 74.2 314.686 74.5667 314.02 74.9C313.42 75.2333 313.186 75.7333 313.32 76.4C313.586 76.9333 313.82 77.2667 314.02 77.4C314.153 77.6 314.353 77.8333 314.62 78.1C314.62 78.5 314.62 78.9 314.62 79.3C314.686 79.7 314.753 80.0667 314.82 80.4C314.82 80.8 314.82 81.2 314.82 81.6C314.886 81.9333 314.953 82.2667 315.02 82.6C315.086 83 315.32 83.3333 315.72 83.6C315.986 83.8667 316.12 84.1667 316.12 84.5C316.32 84.7 316.42 85.0333 316.42 85.5C316.686 85.7667 316.82 86.0667 316.82 86.4C316.82 86.6 316.82 86.7667 316.82 86.9C316.886 87.0333 316.953 87.1667 317.02 87.3C316.686 88.5 316.286 89.6333 315.82 90.7C315.42 91.7 314.686 92.4333 313.62 92.9C313.486 93.2333 313.32 93.4333 313.12 93.5C312.92 93.6333 312.753 93.7667 312.62 93.9C312.086 94.0333 311.82 94.1 311.82 94.1C311.62 94.3 311.42 94.4 311.22 94.4C310.82 94.4 310.553 94.4333 310.42 94.5C310.286 94.6333 310.053 94.7 309.72 94.7C309.453 94.7 309.253 94.6667 309.12 94.6L308.22 94.2C307.953 94.1333 307.653 94.0667 307.32 94C306.986 93.9333 306.686 93.9 306.42 93.9C306.286 93.9667 306.053 94 305.72 94C305.186 94 304.786 93.7667 304.52 93.3C304.253 92.9 304.086 92.3667 304.02 91.7C303.886 91.2333 303.786 90.8333 303.72 90.5C303.653 90.1667 303.653 89.9 303.72 89.7C303.72 89.2333 303.686 88.8333 303.62 88.5C303.553 88.1 303.486 87.7333 303.42 87.4C303.353 87.0667 303.32 86.6667 303.32 86.2C303.386 85.7333 303.453 85.2333 303.52 84.7C303.586 84.2333 303.753 83.7667 304.02 83.3C304.153 82.9667 304.286 82.6 304.42 82.2C304.553 81.8 304.553 81.4 304.42 81C304.22 80.3333 304.153 79.9 304.22 79.7V79.1C304.153 78.9 304.186 78.6 304.32 78.2C304.186 77.8 304.12 77.5 304.12 77.3C304.186 77.0333 304.253 76.7667 304.32 76.5C304.453 76.0333 304.42 75.6667 304.22 75.4C304.353 74.8667 304.42 74.3333 304.42 73.8C304.42 73.2667 304.453 72.7333 304.52 72.2C304.52 71.6667 304.52 71.1333 304.52 70.6C304.52 70.0667 304.553 69.5667 304.62 69.1C304.486 68.9667 304.42 68.6667 304.42 68.2C304.486 68 304.453 67.7 304.32 67.3C304.386 66.9667 304.42 66.6667 304.42 66.4C304.486 66.1333 304.52 65.8333 304.52 65.5C304.586 64.9667 304.62 64.4667 304.62 64C304.686 63.4667 304.72 62.9333 304.72 62.4C304.786 62 304.82 61.6333 304.82 61.3C304.886 60.9667 304.82 60.5333 304.62 60C304.553 59.8 304.52 59.5333 304.52 59.2C304.386 58.6 304.253 58.1 304.12 57.7C304.053 57.3 303.953 56.9333 303.82 56.6C303.553 55.9333 303.42 55.3 303.42 54.7C303.486 54.1 303.586 53.6 303.72 53.2C303.853 52.8667 303.853 52.5333 303.72 52.2C303.52 51.5333 303.453 51.1 303.52 50.9C303.453 50.2333 303.42 49.8 303.42 49.6C303.42 49.4 303.453 49.2333 303.52 49.1C303.386 48.9667 303.286 48.7667 303.22 48.5C303.22 48.2333 303.286 48.0333 303.42 47.9C303.286 47.5667 303.186 47.2 303.12 46.8C303.053 46.4 303.02 45.9667 303.02 45.5C303.02 44.6333 303.186 43.8667 303.52 43.2C303.52 42.5333 303.62 41.8667 303.82 41.2C304.153 39.9333 304.253 38.7 304.12 37.5C304.053 37.1667 303.886 36.6667 303.62 36C303.42 35.4667 303.32 35.0333 303.32 34.7C303.32 34.3667 303.253 34 303.12 33.6C302.853 33.5333 302.72 33.2667 302.72 32.8C302.653 32.6667 302.586 32.5333 302.52 32.4C302.453 32.2 302.353 32.0333 302.22 31.9C302.42 31.6333 302.453 31.3333 302.32 31C302.12 30.8 302.086 30.5667 302.22 30.3C302.086 30.2333 301.953 30.1 301.82 29.9C301.686 29.6333 301.686 29.4 301.82 29.2C301.62 28.6667 301.586 28.0333 301.72 27.3C301.853 26.5 302.086 25.8333 302.42 25.3C302.553 25.1 302.686 24.9 302.82 24.7C303.02 24.4333 303.286 24.3 303.62 24.3C304.02 23.7667 304.386 23.4 304.72 23.2C305.12 22.9333 305.586 22.8 306.12 22.8C306.32 22.5333 306.686 22.4 307.22 22.4C307.753 22.4 308.153 22.3667 308.42 22.3C309.286 22.3667 309.886 22.5333 310.22 22.8C310.553 23 310.886 23.2667 311.22 23.6C311.353 23.7333 311.486 23.9 311.62 24.1C311.82 24.2333 311.986 24.4333 312.12 24.7C312.253 24.9667 312.553 25.2667 313.02 25.6C313.153 25.8667 313.286 26.1333 313.42 26.4C313.553 26.6 313.753 26.8333 314.02 27.1C314.42 27.7 314.486 28.3667 314.22 29.1C314.686 30.7667 314.72 32.6667 314.32 34.8C314.253 35.1333 314.186 35.4 314.12 35.6C314.053 35.7333 314.02 35.8333 314.02 35.9C313.82 36.3667 313.686 36.7333 313.62 37C313.553 37.1333 313.52 37.2333 313.52 37.3L313.02 38.9C312.953 39.7 312.886 40.1333 312.82 40.2L312.52 40.8C312.52 41.6667 312.286 42.7 311.82 43.9C311.82 44.7 311.686 45.3667 311.42 45.9C311.42 46.3667 311.42 46.8667 311.42 47.4C311.42 47.8667 311.386 48.3333 311.32 48.8C311.186 49.7333 311.353 50.6333 311.82 51.5C311.82 51.6333 311.853 51.8 311.92 52C312.053 52.1333 312.153 52.3 312.22 52.5C312.22 52.7 312.186 52.9333 312.12 53.2C312.053 53.4 311.986 53.6 311.92 53.8C311.92 54.1333 311.953 54.4 312.02 54.6C312.02 55.2 311.986 55.7 311.92 56.1C311.92 56.4333 311.886 56.8 311.82 57.2C311.686 58 311.786 58.6667 312.12 59.2C311.986 59.4667 311.953 59.7 312.02 59.9C312.02 60.1 311.986 60.2667 311.92 60.4C311.92 60.5333 311.886 60.6667 311.82 60.8C311.886 61.1333 311.886 61.5 311.82 61.9C311.62 62.1667 311.52 62.4667 311.52 62.8C312.053 63.6667 312.32 64.3 312.32 64.7C312.32 65.0333 312.486 65.2667 312.82 65.4C313.153 65.4667 313.586 65.5333 314.12 65.6H314.52C314.986 65.6 315.32 65.5667 315.52 65.5C316.386 65.3667 316.953 65.1667 317.22 64.9C317.353 64.8333 317.52 64.7667 317.72 64.7C317.986 64.6333 318.286 64.5667 318.62 64.5ZM335.52 70.8C335.453 70.4 335.286 69.9667 335.02 69.5C334.753 69.0333 334.753 68.6 335.02 68.2C335.02 68.0667 335.186 67.9 335.52 67.7C335.853 67.5 336.086 67.3667 336.22 67.3C336.553 67.3 336.82 67.4 337.02 67.6C337.286 67.7333 337.553 67.8667 337.82 68C337.82 68.3333 338.02 68.6333 338.42 68.9C338.953 69.4333 338.753 70 337.82 70.6C337.353 70.9333 336.953 71.1 336.62 71.1L335.52 70.8ZM318.12 37.7C317.986 37.5 317.886 37.3333 317.82 37.2C317.753 37 317.686 36.7333 317.62 36.4C317.753 36.0667 317.853 35.8 317.92 35.6C318.053 35.4 318.286 35.2 318.62 35H319.32C319.786 35.2667 320.053 35.5333 320.12 35.8C320.253 36 320.286 36.2667 320.22 36.6C320.086 36.7333 319.953 36.9 319.82 37.1C319.686 37.2333 319.553 37.3667 319.42 37.5C319.22 37.7 318.986 37.8 318.72 37.8C318.453 37.8 318.253 37.7667 318.12 37.7ZM321.02 29.1C321.553 29.1 321.886 29.2333 322.02 29.5C322.153 29.9667 322.32 30.3 322.52 30.5C322.52 31.1667 322.486 31.6333 322.42 31.9C322.153 32.2333 321.986 32.6333 321.92 33.1C321.52 33.3667 321.22 33.5333 321.02 33.6C320.886 33.6 320.753 33.6 320.62 33.6C320.286 33.6 320.053 33.5667 319.92 33.5C319.853 33.4333 319.753 33.4 319.62 33.4C319.486 33.4 319.353 33.4333 319.22 33.5C318.953 33.3 318.62 33 318.22 32.6C317.953 31.7333 318.053 30.7 318.52 29.5C318.986 29.0333 319.22 28.8 319.22 28.8C319.353 28.6 319.52 28.5 319.72 28.5C320.186 28.5 320.62 28.7 321.02 29.1Z" fill="#C00E8E"/>
</g>
<g filter="url(#filter2_d)">
<path d="M208.076 109.53C208.076 111.076 207.604 111.85 206.66 111.85C206.302 111.85 205.627 111.711 204.634 111.435C203.641 111.158 202.656 111.02 201.68 111.02C199.515 111.02 198.237 111.833 197.847 113.461C197.521 114.828 197.358 118.865 197.358 125.57L197.285 130.355V132.797C197.285 133.757 197.342 134.481 197.456 134.97C197.586 135.458 197.773 136.052 198.018 136.752C198.278 137.452 198.408 138.005 198.408 138.412C198.408 139.226 198.058 139.853 197.358 140.292C196.675 140.731 195.715 140.951 194.478 140.951H193.867C192.972 140.951 192.174 140.731 191.475 140.292C190.775 139.836 190.425 139.299 190.425 138.681C190.425 138.062 190.522 137.484 190.718 136.947L190.913 136.459L191.133 135.971C191.279 135.629 191.45 135.1 191.646 134.384C191.857 133.668 191.963 132.349 191.963 130.429L191.987 129.745C192.004 129.289 192.012 128.834 192.012 128.378L192.061 126.986L192.134 121.469C192.134 116.846 191.995 114.039 191.719 113.046C191.361 111.76 190.343 111.117 188.667 111.117C187.69 111.117 186.551 111.337 185.249 111.776C183.963 112.2 183.166 112.411 182.856 112.411C182.059 112.411 181.66 111.581 181.66 109.921C181.66 108.261 182.368 107.317 183.784 107.089C185.77 106.78 190.449 106.625 197.822 106.625H204.609C205.863 106.625 206.75 106.861 207.271 107.333C207.808 107.805 208.076 108.537 208.076 109.53ZM225.275 121.103L228.913 120.468C230.671 120.468 231.55 121.265 231.55 122.86C231.55 123.788 231.346 124.537 230.939 125.106C230.533 125.676 230.036 125.961 229.45 125.961C228.881 125.961 228.099 125.863 227.106 125.668C226.114 125.473 225.308 125.375 224.689 125.375C222.59 125.375 221.239 125.668 220.637 126.254C220.035 126.84 219.733 128.24 219.733 130.453C219.733 132.667 220.026 134.319 220.612 135.409C221.215 136.483 222.395 137.021 224.152 137.021C226.561 137.021 228.645 136.85 230.402 136.508C232.176 136.166 233.226 135.995 233.552 135.995C234.74 135.995 235.334 136.451 235.334 137.362V137.973C235.334 139.34 234.463 140.202 232.722 140.561C231.436 140.821 228.417 140.951 223.664 140.951H222.736C218.846 140.951 216.25 140.772 214.948 140.414C213.662 140.056 213.02 139.454 213.02 138.607V137.924L213.19 137.24L213.605 135.897C213.964 134.498 214.143 131.544 214.143 127.035L214.533 116.22C214.533 114.055 214.484 112.729 214.387 112.24C214.305 111.752 214.143 111.19 213.898 110.556C213.671 109.921 213.557 109.311 213.557 108.725C213.557 107.309 217.455 106.601 225.251 106.601H230.622C233.275 106.601 234.602 107.504 234.602 109.311C234.602 109.896 234.423 110.344 234.064 110.653C233.706 110.946 233.251 111.093 232.697 111.093C232.16 111.093 231.175 111.028 229.743 110.897C228.327 110.751 226.757 110.678 225.031 110.678C223.322 110.678 222.142 111.093 221.491 111.923C220.629 113.03 220.197 114.983 220.197 117.782C220.197 119.003 220.555 119.866 221.271 120.37C222.004 120.858 223.339 121.103 225.275 121.103ZM251.752 111.923C248.497 113.827 246.869 117.904 246.869 124.154C246.869 130.421 248.757 134.449 252.533 136.239C253.705 136.793 255.259 137.069 257.196 137.069C259.133 137.069 261.493 136.264 264.276 134.652C265.025 134.213 265.652 133.993 266.156 133.993C266.824 133.993 267.157 134.433 267.157 135.312C267.157 135.784 266.872 136.418 266.303 137.216C265.733 137.997 264.96 138.673 263.983 139.242C261.688 140.577 259.052 141.244 256.073 141.244H255.292C253.192 141.244 251.215 140.845 249.359 140.048C245.762 138.502 243.313 135.58 242.011 131.283C241.425 129.33 241.132 127.271 241.132 125.106V124.301C241.132 121.957 241.474 119.646 242.157 117.367C243.492 112.94 246.088 109.807 249.945 107.968C251.996 107.007 254.389 106.527 257.123 106.527C261.534 106.527 264.366 107.577 265.619 109.677C266.14 110.556 266.4 111.329 266.4 111.996C266.4 113.412 265.904 114.12 264.911 114.12C264.602 114.12 263.902 113.746 262.812 112.997C261.721 112.248 260.622 111.695 259.516 111.337C258.425 110.963 257.188 110.775 255.805 110.775C254.421 110.775 253.07 111.158 251.752 111.923ZM294.928 113.632L294.366 109.774C294.366 108.83 294.789 108.122 295.636 107.65C296.498 107.178 297.516 106.942 298.688 106.942C299.876 106.942 300.714 107.146 301.202 107.553C301.707 107.96 301.959 108.367 301.959 108.773V109.579L301.764 110.336L301.446 111.044L301.153 111.801C300.877 112.712 300.738 115.626 300.738 120.541L300.689 124.594C300.689 125.049 300.673 125.725 300.641 126.62L300.567 128.671C300.519 130.722 300.494 132.195 300.494 133.09C300.494 133.969 300.551 134.66 300.665 135.165C300.795 135.653 301.007 136.256 301.3 136.972C301.609 137.688 301.764 138.209 301.764 138.534C301.764 139.413 301.479 140.007 300.909 140.316C300.356 140.626 299.493 140.78 298.321 140.78C297.166 140.78 296.222 140.512 295.489 139.975C294.757 139.421 294.391 138.884 294.391 138.363C294.391 137.842 294.456 137.248 294.586 136.581C294.732 135.897 294.846 135.246 294.928 134.628C295.025 134.009 295.074 132.528 295.074 130.185C295.074 127.841 294.635 126.384 293.756 125.814C293.137 125.408 291.689 125.204 289.41 125.204C284.934 125.204 282.306 125.644 281.524 126.522C280.906 127.222 280.597 129.273 280.597 132.675C280.597 133.944 280.629 134.848 280.694 135.385L280.816 136.166L280.963 136.874C281.061 137.427 281.109 137.956 281.109 138.461C281.109 138.949 280.792 139.413 280.157 139.853C279.522 140.292 278.578 140.512 277.325 140.512C274.965 140.512 273.785 139.787 273.785 138.339C273.785 138.306 274.086 137.297 274.688 135.312C275.03 134.172 275.201 130.307 275.201 123.715L275.226 122.714C275.242 121.786 275.258 121.054 275.274 120.517C275.291 119.979 275.299 118.767 275.299 116.879C275.299 114.975 275.234 113.713 275.104 113.095C274.99 112.476 274.754 111.785 274.396 111.02C274.054 110.255 273.883 109.652 273.883 109.213C273.883 107.829 275.014 107.138 277.276 107.138C278.448 107.138 279.376 107.366 280.06 107.821C280.759 108.261 281.109 108.79 281.109 109.408C281.109 109.555 281.028 110.124 280.865 111.117C280.702 112.11 280.621 113.339 280.621 114.804C280.621 117.847 281.044 119.687 281.891 120.321C282.753 120.94 285.463 121.249 290.021 121.249C292.413 121.249 293.829 120.801 294.269 119.906C294.708 118.995 294.928 116.903 294.928 113.632Z" fill="#480997"/>
<path d="M204.634 111.435L204.097 113.361L204.634 111.435ZM197.847 113.461L195.902 112.994L195.901 112.998L197.847 113.461ZM197.358 125.57L199.358 125.601L199.358 125.586V125.57H197.358ZM197.285 130.355L195.285 130.325L195.285 130.34V130.355H197.285ZM197.456 134.97L195.508 135.424L195.516 135.455L195.524 135.485L197.456 134.97ZM198.018 136.752L196.129 137.411L196.136 137.43L196.143 137.449L198.018 136.752ZM197.358 140.292L196.295 138.598L196.286 138.604L196.277 138.61L197.358 140.292ZM191.475 140.292L190.383 141.968L190.397 141.977L190.411 141.986L191.475 140.292ZM190.718 136.947L188.861 136.204L188.849 136.234L188.838 136.264L190.718 136.947ZM190.913 136.459L189.089 135.638L189.072 135.677L189.056 135.716L190.913 136.459ZM191.133 135.971L192.957 136.791L192.964 136.775L192.971 136.759L191.133 135.971ZM191.646 134.384L189.727 133.817L189.722 133.837L189.716 133.858L191.646 134.384ZM191.963 130.429L189.964 130.357L189.963 130.393V130.429H191.963ZM191.987 129.745L189.989 129.674L191.987 129.745ZM192.012 128.378L190.013 128.308L190.012 128.343V128.378H192.012ZM192.061 126.986L194.059 127.056L194.06 127.035L194.06 127.013L192.061 126.986ZM192.134 121.469L194.134 121.495L194.134 121.482V121.469H192.134ZM191.719 113.046L189.792 113.582L189.792 113.583L191.719 113.046ZM185.249 111.776L185.874 113.676L185.881 113.674L185.889 113.671L185.249 111.776ZM183.784 107.089L183.476 105.113L183.466 105.114L183.784 107.089ZM207.271 107.333L205.927 108.815L205.939 108.825L205.95 108.835L207.271 107.333ZM206.076 109.53C206.076 109.821 206.053 110.02 206.028 110.146C206.002 110.275 205.981 110.283 206.015 110.228C206.057 110.159 206.154 110.041 206.321 109.949C206.485 109.86 206.619 109.85 206.66 109.85V113.85C207.793 113.85 208.812 113.323 209.429 112.312C209.949 111.461 210.076 110.442 210.076 109.53H206.076ZM206.66 109.85C206.688 109.85 206.589 109.849 206.286 109.787C206.01 109.73 205.642 109.639 205.171 109.508L204.097 113.361C205.052 113.627 205.986 113.85 206.66 113.85V109.85ZM205.171 109.508C204.013 109.185 202.848 109.02 201.68 109.02V113.02C202.465 113.02 203.269 113.13 204.097 113.361L205.171 109.508ZM201.68 109.02C200.372 109.02 199.093 109.262 198.023 109.943C196.9 110.659 196.204 111.734 195.902 112.994L199.791 113.928C199.88 113.56 200.018 113.415 200.172 113.317C200.38 113.184 200.823 113.02 201.68 113.02V109.02ZM195.901 112.998C195.686 113.9 195.562 115.442 195.482 117.433C195.399 119.49 195.358 122.206 195.358 125.57H199.358C199.358 122.229 199.399 119.574 199.479 117.594C199.561 115.549 199.681 114.39 199.792 113.924L195.901 112.998ZM195.359 125.54L195.285 130.325L199.285 130.386L199.358 125.601L195.359 125.54ZM195.285 130.355V132.797H199.285V130.355H195.285ZM195.285 132.797C195.285 133.798 195.341 134.707 195.508 135.424L199.404 134.515C199.343 134.256 199.285 133.716 199.285 132.797H195.285ZM195.524 135.485C195.671 136.038 195.875 136.683 196.129 137.411L199.906 136.093C199.671 135.421 199.501 134.878 199.389 134.454L195.524 135.485ZM196.143 137.449C196.253 137.744 196.323 137.975 196.364 138.15C196.384 138.236 196.396 138.302 196.402 138.348C196.408 138.395 196.408 138.415 196.408 138.412H200.408C200.408 137.645 200.178 136.823 199.892 136.054L196.143 137.449ZM196.408 138.412C196.408 138.472 196.402 138.504 196.399 138.515C196.397 138.525 196.396 138.524 196.4 138.517C196.403 138.511 196.403 138.513 196.393 138.524C196.381 138.536 196.352 138.562 196.295 138.598L198.422 141.986C199.694 141.187 200.408 139.927 200.408 138.412H196.408ZM196.277 138.61C196.043 138.76 195.517 138.951 194.478 138.951V142.951C195.912 142.951 197.307 142.703 198.44 141.974L196.277 138.61ZM194.478 138.951H193.867V142.951H194.478V138.951ZM193.867 138.951C193.316 138.951 192.893 138.821 192.538 138.598L190.411 141.986C191.456 142.642 192.628 142.951 193.867 142.951V138.951ZM192.566 138.616C192.477 138.558 192.421 138.512 192.39 138.482C192.358 138.452 192.354 138.443 192.363 138.456C192.372 138.47 192.39 138.502 192.405 138.55C192.419 138.598 192.425 138.644 192.425 138.681H188.425C188.425 140.202 189.337 141.286 190.383 141.968L192.566 138.616ZM192.425 138.681C192.425 138.276 192.488 137.931 192.597 137.631L188.838 136.264C188.557 137.037 188.425 137.848 188.425 138.681H192.425ZM192.575 137.69L192.77 137.202L189.056 135.716L188.861 136.204L192.575 137.69ZM192.737 137.28L192.957 136.791L189.309 135.15L189.089 135.638L192.737 137.28ZM192.971 136.759C193.174 136.284 193.374 135.646 193.575 134.91L189.716 133.858C189.526 134.554 189.384 134.973 189.295 135.183L192.971 136.759ZM193.564 134.95C193.867 133.922 193.963 132.332 193.963 130.429H189.963C189.963 132.366 189.847 133.413 189.727 133.817L193.564 134.95ZM193.962 130.5L193.986 129.817L189.989 129.674L189.964 130.357L193.962 130.5ZM193.986 129.817C194.003 129.337 194.012 128.857 194.012 128.378H190.012C190.012 128.81 190.004 129.242 189.989 129.674L193.986 129.817ZM194.01 128.448L194.059 127.056L190.062 126.916L190.013 128.308L194.01 128.448ZM194.06 127.013L194.134 121.495L190.134 121.442L190.061 126.96L194.06 127.013ZM194.134 121.469C194.134 119.143 194.099 117.248 194.028 115.798C193.96 114.416 193.852 113.251 193.645 112.509L189.792 113.583C189.862 113.833 189.962 114.569 190.032 115.995C190.099 117.352 190.134 119.172 190.134 121.469H194.134ZM193.645 112.509C193.349 111.445 192.731 110.525 191.756 109.909C190.825 109.321 189.741 109.117 188.667 109.117V113.117C189.27 113.117 189.532 113.235 189.619 113.29C189.661 113.317 189.73 113.361 189.792 113.582L193.645 112.509ZM188.667 109.117C187.404 109.117 186.04 109.398 184.609 109.881L185.889 113.671C187.062 113.275 187.977 113.117 188.667 113.117V109.117ZM184.624 109.877C183.998 110.083 183.519 110.228 183.174 110.319C183.001 110.365 182.881 110.392 182.804 110.407C182.707 110.426 182.745 110.411 182.856 110.411V114.411C183.307 114.411 183.822 114.286 184.199 114.186C184.652 114.065 185.214 113.893 185.874 113.676L184.624 109.877ZM182.856 110.411C183.024 110.411 183.256 110.462 183.473 110.612C183.674 110.752 183.751 110.899 183.762 110.923C183.77 110.94 183.74 110.88 183.71 110.694C183.681 110.514 183.66 110.261 183.66 109.921H179.66C179.66 110.847 179.761 111.832 180.156 112.655C180.367 113.093 180.693 113.552 181.193 113.899C181.709 114.257 182.29 114.411 182.856 114.411V110.411ZM183.66 109.921C183.66 109.352 183.784 109.178 183.791 109.168C183.793 109.165 183.796 109.159 183.821 109.145C183.852 109.128 183.935 109.09 184.102 109.063L183.466 105.114C182.364 105.292 181.321 105.795 180.591 106.768C179.891 107.702 179.66 108.83 179.66 109.921H183.66ZM184.092 109.065C185.892 108.785 190.4 108.625 197.822 108.625V104.625C190.498 104.625 185.647 104.775 183.476 105.113L184.092 109.065ZM197.822 108.625H204.609V104.625H197.822V108.625ZM204.609 108.625C205.121 108.625 205.473 108.674 205.7 108.735C205.927 108.795 205.965 108.849 205.927 108.815L208.614 105.851C207.528 104.868 206.007 104.625 204.609 104.625V108.625ZM205.95 108.835C205.952 108.837 205.955 108.84 205.961 108.848C205.966 108.857 205.98 108.88 205.997 108.925C206.032 109.02 206.076 109.208 206.076 109.53H210.076C210.076 108.194 209.708 106.813 208.591 105.831L205.95 108.835ZM225.275 121.103V123.103H225.449L225.619 123.073L225.275 121.103ZM228.913 120.468V118.468H228.74L228.569 118.498L228.913 120.468ZM230.939 125.106L232.567 126.269L230.939 125.106ZM220.612 135.409L218.851 136.356L218.859 136.372L218.868 136.387L220.612 135.409ZM230.402 136.508L230.024 134.544L230.021 134.545L230.402 136.508ZM232.722 140.561L233.119 142.521L233.124 142.52L232.722 140.561ZM214.948 140.414L214.412 142.341L214.418 142.342L214.948 140.414ZM213.02 137.924L211.079 137.439L211.02 137.678V137.924H213.02ZM213.19 137.24L211.28 136.65L211.263 136.702L211.25 136.755L213.19 137.24ZM213.605 135.897L215.516 136.488L215.531 136.441L215.543 136.393L213.605 135.897ZM214.143 127.035L212.144 126.963L212.143 126.999V127.035H214.143ZM214.533 116.22L216.532 116.292L216.533 116.256V116.22H214.533ZM214.387 112.24L212.414 112.569L212.419 112.601L212.426 112.632L214.387 112.24ZM213.898 110.556L212.016 111.231L212.024 111.253L212.032 111.274L213.898 110.556ZM234.064 110.653L235.331 112.201L235.352 112.184L235.372 112.167L234.064 110.653ZM229.743 110.897L229.537 112.887L229.55 112.888L229.562 112.889L229.743 110.897ZM221.491 111.923L219.917 110.689L219.914 110.693L221.491 111.923ZM221.271 120.37L220.12 122.005L220.141 122.02L220.162 122.034L221.271 120.37ZM225.619 123.073L229.257 122.438L228.569 118.498L224.932 119.132L225.619 123.073ZM228.913 122.468C229.529 122.468 229.618 122.612 229.547 122.547C229.51 122.514 229.501 122.484 229.508 122.503C229.519 122.534 229.55 122.64 229.55 122.86H233.55C233.55 121.702 233.222 120.48 232.235 119.585C231.284 118.723 230.055 118.468 228.913 118.468V122.468ZM229.55 122.86C229.55 123.505 229.409 123.808 229.312 123.944L232.567 126.269C233.284 125.265 233.55 124.071 233.55 122.86H229.55ZM229.312 123.944C229.239 124.046 229.216 124.042 229.267 124.013C229.292 123.998 229.325 123.984 229.364 123.973C229.402 123.963 229.433 123.961 229.45 123.961V127.961C230.813 127.961 231.868 127.248 232.567 126.269L229.312 123.944ZM229.45 123.961C229.073 123.961 228.44 123.892 227.492 123.706L226.72 127.63C227.759 127.835 228.688 127.961 229.45 127.961V123.961ZM227.492 123.706C226.442 123.499 225.493 123.375 224.689 123.375V127.375C225.123 127.375 225.785 127.446 226.72 127.63L227.492 123.706ZM224.689 123.375C223.562 123.375 222.544 123.452 221.678 123.64C220.848 123.82 219.933 124.148 219.242 124.82L222.031 127.687C221.942 127.774 222.004 127.662 222.525 127.549C223.01 127.444 223.717 127.375 224.689 127.375V123.375ZM219.242 124.82C218.522 125.521 218.185 126.479 218.004 127.323C217.812 128.214 217.733 129.273 217.733 130.453H221.733C221.733 129.42 221.805 128.672 221.915 128.164C222.034 127.608 222.149 127.573 222.031 127.687L219.242 124.82ZM217.733 130.453C217.733 132.774 218.029 134.827 218.851 136.356L222.374 134.463C222.024 133.811 221.733 132.559 221.733 130.453H217.733ZM218.868 136.387C219.965 138.345 222.016 139.021 224.152 139.021V135.021C222.773 135.021 222.464 134.622 222.357 134.431L218.868 136.387ZM224.152 139.021C226.649 139.021 228.866 138.844 230.784 138.471L230.021 134.545C228.423 134.855 226.474 135.021 224.152 135.021V139.021ZM230.781 138.472C231.66 138.302 232.344 138.178 232.842 138.097C233.404 138.006 233.581 137.995 233.552 137.995V133.995C233.197 133.995 232.687 134.07 232.199 134.149C231.646 134.239 230.919 134.372 230.024 134.544L230.781 138.472ZM233.552 137.995C233.727 137.995 233.814 138.013 233.836 138.018C233.855 138.023 233.78 138.007 233.671 137.924C233.552 137.832 233.45 137.703 233.388 137.561C233.332 137.431 233.334 137.349 233.334 137.362H237.334C237.334 136.435 237.005 135.44 236.106 134.75C235.307 134.138 234.345 133.995 233.552 133.995V137.995ZM233.334 137.362V137.973H237.334V137.362H233.334ZM233.334 137.973C233.334 138.101 233.314 138.16 233.308 138.176C233.303 138.188 233.297 138.2 233.273 138.224C233.212 138.285 232.972 138.467 232.319 138.602L233.124 142.52C234.213 142.296 235.279 141.867 236.088 141.066C236.948 140.214 237.334 139.122 237.334 137.973H233.334ZM232.325 138.6C231.276 138.813 228.479 138.951 223.664 138.951V142.951C228.355 142.951 231.595 142.829 233.119 142.521L232.325 138.6ZM223.664 138.951H222.736V142.951H223.664V138.951ZM222.736 138.951C218.807 138.951 216.479 138.761 215.479 138.486L214.418 142.342C216.021 142.783 218.885 142.951 222.736 142.951V138.951ZM215.485 138.487C215.258 138.424 215.1 138.361 214.996 138.309C214.891 138.257 214.861 138.226 214.869 138.234C214.882 138.246 214.928 138.295 214.968 138.385C215.009 138.477 215.02 138.559 215.02 138.607H211.02C211.02 139.609 211.428 140.492 212.134 141.153C212.781 141.76 213.605 142.116 214.412 142.341L215.485 138.487ZM215.02 138.607V137.924H211.02V138.607H215.02ZM214.96 138.409L215.131 137.725L211.25 136.755L211.079 137.439L214.96 138.409ZM215.101 137.831L215.516 136.488L211.695 135.307L211.28 136.65L215.101 137.831ZM215.543 136.393C215.975 134.706 216.143 131.492 216.143 127.035H212.143C212.143 131.595 211.953 134.289 211.668 135.402L215.543 136.393ZM216.141 127.107L216.532 116.292L212.535 116.148L212.144 126.963L216.141 127.107ZM216.533 116.22C216.533 115.126 216.521 114.226 216.495 113.528C216.471 112.877 216.433 112.271 216.348 111.848L212.426 112.632C212.425 112.629 212.429 112.65 212.436 112.706C212.442 112.759 212.45 112.831 212.457 112.925C212.472 113.112 212.486 113.361 212.498 113.675C212.521 114.303 212.533 115.149 212.533 116.22H216.533ZM216.36 111.911C216.249 111.251 216.041 110.555 215.765 109.838L212.032 111.274C212.244 111.826 212.361 112.253 212.414 112.569L216.36 111.911ZM215.781 109.88C215.619 109.43 215.557 109.048 215.557 108.725H211.557C211.557 109.573 211.722 110.412 212.016 111.231L215.781 109.88ZM215.557 108.725C215.557 109.462 215.007 109.681 215.244 109.552C215.452 109.438 215.936 109.263 216.838 109.099C218.604 108.779 221.381 108.601 225.251 108.601V104.601C221.324 104.601 218.255 104.777 216.123 105.164C215.076 105.354 214.098 105.621 213.331 106.039C212.594 106.441 211.557 107.279 211.557 108.725H215.557ZM225.251 108.601H230.622V104.601H225.251V108.601ZM230.622 108.601C231.784 108.601 232.303 108.81 232.481 108.931C232.545 108.975 232.553 108.997 232.557 109.004C232.564 109.02 232.602 109.104 232.602 109.311H236.602C236.602 107.843 236.018 106.501 234.732 105.625C233.584 104.843 232.113 104.601 230.622 104.601V108.601ZM232.602 109.311C232.602 109.402 232.587 109.4 232.61 109.343C232.622 109.314 232.641 109.277 232.668 109.238C232.696 109.199 232.727 109.166 232.757 109.14L235.372 112.167C236.272 111.389 236.602 110.327 236.602 109.311H232.602ZM232.798 109.105C232.807 109.098 232.817 109.091 232.827 109.086C232.837 109.08 232.843 109.079 232.842 109.079C232.84 109.079 232.798 109.093 232.697 109.093V113.093C233.618 113.093 234.549 112.841 235.331 112.201L232.798 109.105ZM232.697 109.093C232.263 109.093 231.364 109.037 229.924 108.906L229.562 112.889C230.987 113.019 232.057 113.093 232.697 113.093V109.093ZM229.949 108.908C228.452 108.753 226.811 108.678 225.031 108.678V112.678C226.702 112.678 228.202 112.749 229.537 112.887L229.949 108.908ZM225.031 108.678C223.087 108.678 221.132 109.14 219.918 110.689L223.065 113.157C223.152 113.046 223.557 112.678 225.031 112.678V108.678ZM219.914 110.693C218.613 112.362 218.197 114.91 218.197 117.782H222.197C222.197 115.055 222.644 113.697 223.069 113.152L219.914 110.693ZM218.197 117.782C218.197 119.377 218.68 120.991 220.12 122.005L222.423 118.735C222.395 118.715 222.357 118.684 222.313 118.578C222.261 118.452 222.197 118.206 222.197 117.782H218.197ZM220.162 122.034C220.844 122.489 221.657 122.74 222.462 122.887C223.286 123.038 224.233 123.103 225.275 123.103V119.103C224.381 119.103 223.692 119.045 223.182 118.952C222.652 118.855 222.432 118.74 222.381 118.706L220.162 122.034ZM251.752 111.923L250.748 110.193L250.742 110.197L251.752 111.923ZM252.533 136.239L251.676 138.046L251.679 138.048L252.533 136.239ZM264.276 134.652L265.278 136.383L265.289 136.377L264.276 134.652ZM266.303 137.216L267.919 138.394L267.925 138.386L267.93 138.378L266.303 137.216ZM263.983 139.242L264.989 140.971L264.991 140.97L263.983 139.242ZM249.359 140.048L248.57 141.885L248.57 141.885L249.359 140.048ZM242.011 131.283L240.095 131.858L240.097 131.863L242.011 131.283ZM242.157 117.367L240.242 116.79L240.242 116.792L242.157 117.367ZM249.945 107.968L249.097 106.156L249.085 106.162L249.945 107.968ZM265.619 109.677L267.34 108.657L267.336 108.652L265.619 109.677ZM262.812 112.997L261.68 114.646L262.812 112.997ZM259.516 111.337L258.866 113.229L258.883 113.234L258.9 113.24L259.516 111.337ZM250.742 110.197C246.547 112.651 244.869 117.679 244.869 124.154H248.869C248.869 118.13 250.447 115.004 252.762 113.649L250.742 110.197ZM244.869 124.154C244.869 130.758 246.88 135.772 251.676 138.046L253.39 134.432C250.634 133.125 248.869 130.083 248.869 124.154H244.869ZM251.679 138.048C253.217 138.774 255.098 139.069 257.196 139.069V135.069C255.421 135.069 254.193 134.811 253.387 134.431L251.679 138.048ZM257.196 139.069C259.646 139.069 262.369 138.067 265.278 136.383L263.274 132.921C260.617 134.46 258.62 135.069 257.196 135.069V139.069ZM265.289 136.377C265.584 136.204 265.809 136.102 265.97 136.045C266.134 135.988 266.188 135.993 266.156 135.993V131.993C265.124 131.993 264.126 132.422 263.264 132.928L265.289 136.377ZM266.156 135.993C266.106 135.993 265.968 135.985 265.79 135.907C265.601 135.824 265.434 135.691 265.314 135.532C265.101 135.252 265.157 135.068 265.157 135.312H269.157C269.157 134.676 269.047 133.833 268.5 133.113C267.874 132.289 266.969 131.993 266.156 131.993V135.993ZM265.157 135.312C265.157 135.164 265.196 135.151 265.119 135.323C265.048 135.482 264.912 135.722 264.675 136.053L267.93 138.378C268.529 137.54 269.157 136.458 269.157 135.312H265.157ZM264.687 136.037C264.305 136.561 263.754 137.061 262.976 137.515L264.991 140.97C266.166 140.284 267.161 139.433 267.919 138.394L264.687 136.037ZM262.978 137.513C261.024 138.649 258.743 139.244 256.073 139.244V143.244C259.361 143.244 262.353 142.504 264.989 140.971L262.978 137.513ZM256.073 139.244H255.292V143.244H256.073V139.244ZM255.292 139.244C253.453 139.244 251.745 138.896 250.149 138.21L248.57 141.885C250.684 142.794 252.932 143.244 255.292 143.244V139.244ZM250.149 138.21C247.177 136.933 245.084 134.528 243.925 130.703L240.097 131.863C241.542 136.632 244.348 140.071 248.57 141.885L250.149 138.21ZM243.926 130.709C243.4 128.953 243.132 127.089 243.132 125.106H239.132C239.132 127.454 239.45 129.707 240.095 131.858L243.926 130.709ZM243.132 125.106V124.301H239.132V125.106H243.132ZM243.132 124.301C243.132 122.155 243.444 120.037 244.073 117.942L240.242 116.792C239.503 119.255 239.132 121.759 239.132 124.301H243.132ZM244.072 117.944C245.259 114.007 247.502 111.348 250.806 109.773L249.085 106.162C244.673 108.266 241.725 111.873 240.242 116.79L244.072 117.944ZM250.793 109.779C252.529 108.966 254.622 108.527 257.123 108.527V104.527C254.155 104.527 251.463 105.049 249.097 106.157L250.793 109.779ZM257.123 108.527C261.392 108.527 263.226 109.57 263.902 110.702L267.336 108.652C265.506 105.585 261.675 104.527 257.123 104.527V108.527ZM263.899 110.696C264.326 111.417 264.4 111.83 264.4 111.996H268.4C268.4 110.828 267.954 109.694 267.34 108.657L263.899 110.696ZM264.4 111.996C264.4 112.24 264.378 112.39 264.36 112.47C264.341 112.549 264.335 112.52 264.39 112.441C264.455 112.349 264.563 112.248 264.704 112.181C264.835 112.119 264.922 112.12 264.911 112.12V116.12C265.948 116.12 266.983 115.71 267.666 114.737C268.257 113.894 268.4 112.877 268.4 111.996H264.4ZM264.911 112.12C265.185 112.12 265.345 112.191 265.302 112.175C265.29 112.171 265.226 112.145 265.098 112.076C264.841 111.939 264.462 111.704 263.944 111.348L261.68 114.646C262.251 115.038 262.768 115.366 263.211 115.603C263.432 115.721 263.67 115.836 263.91 115.925C264.119 116.003 264.483 116.12 264.911 116.12V112.12ZM263.944 111.348C262.715 110.505 261.445 109.859 260.131 109.434L258.9 113.24C259.8 113.531 260.727 113.992 261.68 114.646L263.944 111.348ZM260.165 109.445C258.829 108.986 257.366 108.775 255.805 108.775V112.775C257.01 112.775 258.022 112.939 258.866 113.229L260.165 109.445ZM255.805 108.775C254.034 108.775 252.34 109.27 250.748 110.193L252.756 113.653C253.801 113.046 254.809 112.775 255.805 112.775V108.775ZM294.928 113.632H296.928V113.487L296.907 113.344L294.928 113.632ZM294.366 109.774H292.366V109.919L292.387 110.063L294.366 109.774ZM295.636 107.65L294.676 105.896L294.669 105.9L294.662 105.904L295.636 107.65ZM301.202 107.553L299.922 109.089L299.934 109.099L299.947 109.11L301.202 107.553ZM301.959 109.579L303.896 110.079L303.959 109.833V109.579H301.959ZM301.764 110.336L303.589 111.154L303.658 111L303.7 110.836L301.764 110.336ZM301.446 111.044L299.621 110.226L299.6 110.273L299.581 110.322L301.446 111.044ZM301.153 111.801L299.288 111.079L299.261 111.148L299.24 111.22L301.153 111.801ZM300.738 120.541L302.738 120.565L302.738 120.553V120.541H300.738ZM300.689 124.594L298.69 124.57L298.689 124.582V124.594H300.689ZM300.641 126.62L298.642 126.547L298.642 126.549L300.641 126.62ZM300.567 128.671L298.569 128.6L298.568 128.611L298.568 128.623L300.567 128.671ZM300.665 135.165L298.714 135.606L298.723 135.643L298.733 135.68L300.665 135.165ZM301.3 136.972L299.449 137.729L299.456 137.747L299.464 137.765L301.3 136.972ZM300.909 140.316L299.955 138.559L299.944 138.565L299.934 138.571L300.909 140.316ZM295.489 139.975L294.284 141.57L294.295 141.579L294.307 141.587L295.489 139.975ZM294.586 136.581L292.63 136.162L292.626 136.18L292.623 136.198L294.586 136.581ZM294.928 134.628L292.952 134.316L292.948 134.341L292.945 134.367L294.928 134.628ZM293.756 125.814L292.657 127.485L292.668 127.493L293.756 125.814ZM281.524 126.522L280.03 125.194L280.026 125.198L281.524 126.522ZM280.694 135.385L278.709 135.625L278.713 135.66L278.718 135.694L280.694 135.385ZM280.816 136.166L278.84 136.475L278.848 136.523L278.858 136.571L280.816 136.166ZM280.963 136.874L282.932 136.526L282.927 136.498L282.921 136.469L280.963 136.874ZM274.688 135.312L276.602 135.892L276.604 135.886L274.688 135.312ZM275.201 123.715L273.202 123.666L273.201 123.69V123.715H275.201ZM275.226 122.714L277.225 122.763L277.225 122.749L275.226 122.714ZM275.104 113.095L273.137 113.457L273.141 113.482L273.146 113.507L275.104 113.095ZM274.396 111.02L272.569 111.835L272.577 111.851L272.584 111.867L274.396 111.02ZM280.06 107.821L278.95 109.485L278.973 109.501L278.996 109.515L280.06 107.821ZM281.891 120.321L280.691 121.921L280.708 121.934L280.725 121.947L281.891 120.321ZM294.269 119.906L296.064 120.788L296.067 120.781L296.07 120.775L294.269 119.906ZM296.907 113.344L296.345 109.486L292.387 110.063L292.949 113.92L296.907 113.344ZM296.366 109.774C296.366 109.611 296.4 109.563 296.4 109.561C296.403 109.558 296.439 109.492 296.61 109.397L294.662 105.904C293.986 106.28 293.388 106.805 292.967 107.509C292.544 108.216 292.366 108.994 292.366 109.774H296.366ZM296.596 109.405C297.112 109.122 297.787 108.942 298.688 108.942V104.942C297.244 104.942 295.884 105.235 294.676 105.896L296.596 109.405ZM298.688 108.942C299.178 108.942 299.517 108.985 299.736 109.039C299.958 109.093 299.981 109.138 299.922 109.089L302.483 106.016C301.433 105.142 299.988 104.942 298.688 104.942V108.942ZM299.947 109.11C300.081 109.218 300.096 109.259 300.07 109.217C300.054 109.192 300.026 109.14 300.001 109.06C299.976 108.979 299.959 108.882 299.959 108.773H303.959C303.959 107.477 303.154 106.558 302.458 105.996L299.947 109.11ZM299.959 108.773V109.579H303.959V108.773H299.959ZM300.022 109.079L299.827 109.836L303.7 110.836L303.896 110.079L300.022 109.079ZM299.939 109.518L299.621 110.226L303.271 111.862L303.589 111.154L299.939 109.518ZM299.581 110.322L299.288 111.079L303.018 112.523L303.311 111.766L299.581 110.322ZM299.24 111.22C299.017 111.954 298.911 113.165 298.844 114.575C298.773 116.077 298.738 118.07 298.738 120.541H302.738C302.738 118.097 302.773 116.175 302.84 114.764C302.873 114.058 302.914 113.499 302.96 113.075C302.983 112.864 303.006 112.699 303.027 112.574C303.038 112.513 303.047 112.465 303.055 112.431C303.063 112.396 303.067 112.381 303.067 112.382L299.24 111.22ZM298.738 120.517L298.69 124.57L302.689 124.618L302.738 120.565L298.738 120.517ZM298.689 124.594C298.689 125.012 298.674 125.658 298.642 126.547L302.639 126.693C302.672 125.792 302.689 125.087 302.689 124.594H298.689ZM298.642 126.549L298.569 128.6L302.566 128.742L302.639 126.692L298.642 126.549ZM298.568 128.623C298.519 130.675 298.494 132.169 298.494 133.09H302.494C302.494 132.221 302.518 130.768 302.567 128.719L298.568 128.623ZM298.494 133.09C298.494 134.029 298.553 134.891 298.714 135.606L302.616 134.725C302.549 134.43 302.494 133.908 302.494 133.09H298.494ZM298.733 135.68C298.893 136.282 299.138 136.971 299.449 137.729L303.151 136.214C302.875 135.54 302.698 135.025 302.598 134.65L298.733 135.68ZM299.464 137.765C299.599 138.078 299.683 138.309 299.73 138.469C299.754 138.547 299.764 138.593 299.767 138.613C299.771 138.635 299.764 138.605 299.764 138.534H303.764C303.764 137.753 303.443 136.89 303.136 136.179L299.464 137.765ZM299.764 138.534C299.764 138.648 299.754 138.72 299.747 138.76C299.739 138.799 299.735 138.799 299.747 138.774C299.76 138.747 299.786 138.703 299.83 138.657C299.874 138.61 299.92 138.578 299.955 138.559L301.863 142.074C303.303 141.292 303.764 139.848 303.764 138.534H299.764ZM299.934 138.571C299.837 138.625 299.396 138.78 298.321 138.78V142.78C299.59 142.78 300.875 142.627 301.885 142.062L299.934 138.571ZM298.321 138.78C297.474 138.78 296.978 138.586 296.672 138.362L294.307 141.587C295.465 142.437 296.857 142.78 298.321 142.78V138.78ZM296.695 138.379C296.571 138.285 296.481 138.206 296.418 138.143C296.354 138.08 296.326 138.042 296.318 138.03C296.31 138.019 296.329 138.043 296.349 138.103C296.371 138.165 296.391 138.255 296.391 138.363H292.391C292.391 139.861 293.419 140.917 294.284 141.57L296.695 138.379ZM296.391 138.363C296.391 138.003 296.436 137.541 296.549 136.964L292.623 136.198C292.475 136.956 292.391 137.682 292.391 138.363H296.391ZM296.542 137C296.698 136.27 296.822 135.566 296.911 134.889L292.945 134.367C292.871 134.927 292.767 135.525 292.63 136.162L296.542 137ZM296.903 134.94C297.031 134.133 297.074 132.476 297.074 130.185H293.074C293.074 132.58 293.02 133.886 292.952 134.316L296.903 134.94ZM297.074 130.185C297.074 128.911 296.957 127.745 296.659 126.757C296.363 125.776 295.826 124.773 294.844 124.136L292.668 127.493C292.564 127.425 292.686 127.436 292.83 127.912C292.971 128.381 293.074 129.115 293.074 130.185H297.074ZM294.855 124.144C294.158 123.685 293.27 123.487 292.484 123.376C291.631 123.256 290.597 123.204 289.41 123.204V127.204C290.502 127.204 291.331 127.254 291.927 127.337C292.59 127.43 292.735 127.537 292.657 127.485L294.855 124.144ZM289.41 123.204C287.125 123.204 285.224 123.315 283.752 123.561C283.016 123.684 282.331 123.85 281.735 124.08C281.161 124.302 280.522 124.64 280.03 125.194L283.019 127.851C282.918 127.965 282.9 127.919 283.178 127.811C283.435 127.712 283.833 127.603 284.412 127.506C285.568 127.313 287.219 127.204 289.41 127.204V123.204ZM280.026 125.198C279.624 125.652 279.382 126.19 279.223 126.661C279.058 127.152 278.939 127.703 278.851 128.287C278.675 129.454 278.597 130.929 278.597 132.675H282.597C282.597 131.019 282.673 129.768 282.806 128.884C282.873 128.442 282.947 128.137 283.014 127.94C283.087 127.724 283.115 127.743 283.023 127.847L280.026 125.198ZM278.597 132.675C278.597 133.947 278.628 134.957 278.709 135.625L282.68 135.144C282.631 134.738 282.597 133.942 282.597 132.675H278.597ZM278.718 135.694L278.84 136.475L282.792 135.857L282.67 135.076L278.718 135.694ZM278.858 136.571L279.004 137.279L282.921 136.469L282.775 135.761L278.858 136.571ZM278.993 137.222C279.073 137.673 279.109 138.085 279.109 138.461H283.109C283.109 137.828 283.048 137.182 282.932 136.526L278.993 137.222ZM279.109 138.461C279.109 138.362 279.126 138.269 279.152 138.19C279.178 138.113 279.208 138.065 279.221 138.046C279.233 138.028 279.23 138.036 279.197 138.067C279.164 138.099 279.108 138.147 279.019 138.208L281.296 141.497C282.147 140.907 283.109 139.919 283.109 138.461H279.109ZM279.019 138.208C278.868 138.312 278.403 138.512 277.325 138.512V142.512C278.754 142.512 280.177 142.272 281.296 141.497L279.019 138.208ZM277.325 138.512C276.285 138.512 275.841 138.34 275.716 138.264C275.684 138.244 275.725 138.263 275.764 138.335C275.801 138.403 275.785 138.425 275.785 138.339H271.785C271.785 139.719 272.409 140.927 273.624 141.673C274.679 142.321 276.006 142.512 277.325 142.512V138.512ZM275.785 138.339C275.785 138.491 275.767 138.609 275.763 138.632C275.757 138.676 275.75 138.71 275.747 138.727C275.74 138.762 275.734 138.788 275.732 138.794C275.728 138.811 275.726 138.817 275.729 138.806C275.734 138.787 275.745 138.749 275.763 138.687C275.798 138.565 275.853 138.38 275.927 138.129C276.077 137.629 276.301 136.884 276.602 135.892L272.775 134.731C272.473 135.725 272.246 136.477 272.094 136.986C272.019 137.239 271.96 137.437 271.92 137.576C271.901 137.644 271.883 137.706 271.869 137.756C271.863 137.779 271.854 137.813 271.845 137.848C271.841 137.865 271.833 137.898 271.825 137.939C271.821 137.959 271.814 137.995 271.807 138.042C271.804 138.066 271.785 138.186 271.785 138.339H275.785ZM276.604 135.886C276.86 135.034 276.988 133.521 277.071 131.646C277.158 129.671 277.201 127.023 277.201 123.715H273.201C273.201 126.999 273.159 129.58 273.075 131.47C272.987 133.46 272.859 134.45 272.773 134.737L276.604 135.886ZM277.201 123.764L277.225 122.763L273.226 122.665L273.202 123.666L277.201 123.764ZM277.225 122.749C277.241 121.825 277.258 121.102 277.273 120.577L273.275 120.456C273.259 121.006 273.242 121.748 273.226 122.679L277.225 122.749ZM277.273 120.577C277.291 120.004 277.299 118.758 277.299 116.879H273.299C273.299 118.775 273.291 119.955 273.275 120.456L277.273 120.577ZM277.299 116.879C277.299 115.011 277.241 113.539 277.061 112.683L273.146 113.507C273.227 113.887 273.299 114.938 273.299 116.879H277.299ZM277.07 112.732C276.917 111.9 276.614 111.042 276.207 110.172L272.584 111.867C272.893 112.527 273.062 113.052 273.137 113.457L277.07 112.732ZM276.222 110.204C276.078 109.881 275.987 109.632 275.935 109.448C275.881 109.256 275.883 109.188 275.883 109.213H271.883C271.883 110.086 272.198 111.005 272.569 111.835L276.222 110.204ZM275.883 109.213C275.883 109.144 275.895 109.181 275.851 109.262C275.805 109.347 275.754 109.376 275.775 109.363C275.809 109.342 275.929 109.281 276.191 109.227C276.451 109.174 276.807 109.138 277.276 109.138V105.138C276.006 105.138 274.718 105.32 273.688 105.95C272.497 106.678 271.883 107.861 271.883 109.213H275.883ZM277.276 109.138C278.214 109.138 278.707 109.324 278.95 109.485L281.169 106.157C280.044 105.408 278.682 105.138 277.276 105.138V109.138ZM278.996 109.515C279.175 109.627 279.201 109.685 279.179 109.651C279.166 109.632 279.146 109.596 279.131 109.545C279.115 109.493 279.109 109.445 279.109 109.408H283.109C283.109 107.877 282.186 106.795 281.123 106.128L278.996 109.515ZM279.109 109.408C279.109 109.319 279.117 109.28 279.107 109.372C279.1 109.434 279.087 109.529 279.068 109.662C279.031 109.927 278.972 110.302 278.892 110.794L282.839 111.441C282.921 110.939 282.985 110.533 283.028 110.228C283.062 109.994 283.109 109.655 283.109 109.408H279.109ZM278.892 110.794C278.705 111.93 278.621 113.275 278.621 114.804H282.621C282.621 113.403 282.7 112.29 282.839 111.441L278.892 110.794ZM278.621 114.804C278.621 116.397 278.73 117.786 278.989 118.914C279.233 119.971 279.69 121.171 280.691 121.921L283.091 118.721C283.245 118.837 283.068 118.8 282.888 118.017C282.724 117.306 282.621 116.254 282.621 114.804H278.621ZM280.725 121.947C281.236 122.313 281.846 122.524 282.381 122.663C282.95 122.811 283.612 122.921 284.343 123.004C285.807 123.171 287.709 123.249 290.021 123.249V119.249C287.775 119.249 286.043 119.172 284.797 119.03C284.173 118.959 283.711 118.876 283.387 118.791C283.029 118.698 282.976 118.639 283.056 118.696L280.725 121.947ZM290.021 123.249C291.313 123.249 292.495 123.132 293.48 122.82C294.454 122.512 295.507 121.922 296.064 120.788L292.473 119.025C292.591 118.785 292.716 118.867 292.274 119.006C291.843 119.143 291.121 119.249 290.021 119.249V123.249ZM296.07 120.775C296.449 119.989 296.638 118.945 296.752 117.863C296.872 116.721 296.928 115.304 296.928 113.632H292.928C292.928 115.231 292.874 116.496 292.774 117.445C292.668 118.454 292.528 118.912 292.467 119.038L296.07 120.775Z" fill="#77046C"/>
</g>
<defs>
<filter id="filter0_di" x="25" y="33" width="117" height="127" filterUnits="userSpaceOnUse" color-interpolation-filters="sRGB">
<feFlood flood-opacity="0" result="BackgroundImageFix"/>
<feColorMatrix in="SourceAlpha" type="matrix" values="0 0 0 0 0 0 0 0 0 0 0 0 0 0 0 0 0 0 127 0"/>
<feOffset dy="4"/>
<feGaussianBlur stdDeviation="2"/>
<feColorMatrix type="matrix" values="0 0 0 0 0 0 0 0 0 0 0 0 0 0 0 0 0 0 0.25 0"/>
<feBlend mode="normal" in2="BackgroundImageFix" result="effect1_dropShadow"/>
<feBlend mode="normal" in="SourceGraphic" in2="effect1_dropShadow" result="shape"/>
<feColorMatrix in="SourceAlpha" type="matrix" values="0 0 0 0 0 0 0 0 0 0 0 0 0 0 0 0 0 0 127 0" result="hardAlpha"/>
<feOffset dy="4"/>
<feGaussianBlur stdDeviation="2"/>
<feComposite in2="hardAlpha" operator="arithmetic" k2="-1" k3="1"/>
<feColorMatrix type="matrix" values="0 0 0 0 0 0 0 0 0 0 0 0 0 0 0 0 0 0 0.25 0"/>
<feBlend mode="normal" in2="shape" result="effect2_innerShadow"/>
</filter>
<filter id="filter1_d" x="144.222" y="22.3" width="204.442" height="86.5" filterUnits="userSpaceOnUse" color-interpolation-filters="sRGB">
<feFlood flood-opacity="0" result="BackgroundImageFix"/>
<feColorMatrix in="SourceAlpha" type="matrix" values="0 0 0 0 0 0 0 0 0 0 0 0 0 0 0 0 0 0 127 0"/>
<feOffset dy="4"/>
<feGaussianBlur stdDeviation="2"/>
<feColorMatrix type="matrix" values="0 0 0 0 0 0 0 0 0 0 0 0 0 0 0 0 0 0 0.25 0"/>
<feBlend mode="normal" in2="BackgroundImageFix" result="effect1_dropShadow"/>
<feBlend mode="normal" in="SourceGraphic" in2="effect1_dropShadow" result="shape"/>
</filter>
<filter id="filter2_d" x="175.66" y="104.527" width="132.299" height="46.7168" filterUnits="userSpaceOnUse" color-interpolation-filters="sRGB">
<feFlood flood-opacity="0" result="BackgroundImageFix"/>
<feColorMatrix in="SourceAlpha" type="matrix" values="0 0 0 0 0 0 0 0 0 0 0 0 0 0 0 0 0 0 127 0"/>
<feOffset dy="4"/>
<feGaussianBlur stdDeviation="2"/>
<feColorMatrix type="matrix" values="0 0 0 0 0 0 0 0 0 0 0 0 0 0 0 0 0 0 0.25 0"/>
<feBlend mode="normal" in2="BackgroundImageFix" result="effect1_dropShadow"/>
<feBlend mode="normal" in="SourceGraphic" in2="effect1_dropShadow" result="shape"/>
</filter>
<clipPath id="clip0">
<rect width="138" height="138" fill="white" transform="translate(0 24)"/>
</clipPath>
</defs>
</svg>
